<svg width="30" height="30" viewBox="0 0 30 30" fill="none" xmlns="http://www.w3.org/2000/svg">
<path d="M10.6265 14.2175C11.2574 14.2175 11.7688 14.7253 11.7688 15.3518V16.8421H13.2831C13.7182 16.7953 14.1419 16.9994 14.3742 17.3677C14.6065 17.7359 14.6065 18.2036 14.3742 18.5718C14.1419 18.94 13.7182 19.1442 13.2831 19.0974H11.7688V20.6009C11.7617 21.2243 11.2544 21.728 10.6265 21.7351C9.9875 21.7279 9.4841 21.2222 9.48414 20.6009V19.0974H7.96987C7.53479 19.1442 7.11103 18.94 6.87874 18.5718C6.64644 18.2036 6.64644 17.7359 6.87874 17.3677C7.11103 16.9994 7.53479 16.7953 7.96987 16.8421H9.48414V15.3518L9.49457 15.1978C9.57021 14.6442 10.0482 14.2175 10.6265 14.2175ZM21.253 19.7832C21.5768 19.4612 22.0632 19.3625 22.4883 19.5326C22.6249 19.596 22.7504 19.6806 22.8602 19.7832C23.2969 20.2225 23.2937 20.9296 22.8532 21.3651C22.4127 21.8005 21.7005 21.8005 21.26 21.3651C20.8195 20.9296 20.8163 20.2225 21.253 19.7832ZM19.0745 14.5077C19.3468 14.3963 19.6524 14.3963 19.9247 14.5077C20.0668 14.5683 20.1971 14.6531 20.3099 14.7583C20.5206 14.9687 20.6398 15.2528 20.642 15.5496C20.6437 15.6984 20.6167 15.8462 20.5623 15.9848C20.5098 16.1266 20.4232 16.2534 20.3099 16.3541C19.8636 16.7761 19.1622 16.7761 18.7159 16.3541C18.494 16.1472 18.3682 15.8584 18.3682 15.5562C18.3682 15.254 18.494 14.9652 18.7159 14.7583C18.8158 14.65 18.9382 14.5645 19.0745 14.5077ZM29.993 14.2761C29.792 9.65695 25.88 6.12092 21.1655 6.15392C20.588 6.16292 20.126 6.6355 20.1335 7.21458C20.141 7.79067 20.612 8.26474 21.1925 8.24674C24.863 8.17323 27.746 10.8286 27.9005 14.3647C27.908 14.5027 27.9095 14.6422 27.905 14.8072V21.3167C27.944 23.0285 27.3125 24.6502 26.1305 25.8849C24.9485 27.1226 23.3555 27.8232 21.6425 27.8607C21.503 27.8637 21.362 27.8607 21.161 27.8547C16.9985 27.9252 12.854 27.9252 8.77702 27.8562C5.21753 28.0092 2.25354 25.2653 2.09904 21.7398C2.09304 21.5987 2.09154 21.4577 2.09454 21.2942V14.7832C2.01804 11.2517 4.82753 8.31725 8.36152 8.24224C8.49952 8.23774 8.64052 8.24224 8.82352 8.24674H15.854C16.4315 8.24674 16.901 7.77867 16.901 7.19958V5.79687C16.871 3.62454 15.0905 1.87078 12.932 1.87078H12.902H11.417H11.408C11.1875 1.87078 10.979 1.78527 10.82 1.62924C10.658 1.47322 10.568 1.26169 10.5665 1.03666C10.5605 0.462069 10.0925 0 9.52102 0H9.50902C8.93152 0.0060009 8.46802 0.480072 8.47402 1.05766C8.48302 1.84078 8.79502 2.57589 9.35452 3.12347C9.91552 3.67555 10.6535 3.93209 11.429 3.9651H12.9095H12.9245C13.9505 3.9651 14.795 4.79622 14.807 5.80887V6.15392L8.86852 6.15542C8.68102 6.14792 8.49502 6.14492 8.31202 6.14792C3.62903 6.24994 -0.0999561 10.1445 0.00204364 14.8072V21.2732C-0.000956353 21.4577 0.000543643 21.6422 0.00804362 21.8283C0.213543 26.509 4.17803 30.177 8.80552 29.9475C10.817 29.9835 12.8645 30 14.921 30C16.9895 30 19.067 29.9835 21.134 29.946C21.3215 29.9535 21.5075 29.9565 21.692 29.952C23.96 29.9025 26.0735 28.9738 27.6425 27.3326C29.2115 25.6929 30.0485 23.54 29.9975 21.2942V14.8327C30.002 14.6482 30.0005 14.4622 29.993 14.2761Z" fill="white"/>
</svg>
