<svg width="30" height="30" viewBox="0 0 30 30" fill="none" xmlns="http://www.w3.org/2000/svg">
<path d="M12.6469 27.607H6.26099C4.19176 27.5998 2.51404 26.0166 2.49884 24.0568V12.0254C2.5029 11.3693 2.81286 10.7485 3.34567 10.3292L4.47015 9.54027C4.88067 9.12599 4.92242 8.49384 4.5696 8.03434C4.21677 7.57484 3.56897 7.41768 3.02638 7.65996L1.87413 8.4752C0.711833 9.32702 0.0220878 10.6336 0 12.0254V24.0699C0.00763468 27.3421 2.80631 29.9929 6.26099 30.0001H12.6469C13.337 30.0001 13.8963 29.4703 13.8963 28.8167C13.8963 28.1631 13.337 27.6333 12.6469 27.6333V27.607Z" fill="white"/>
<path d="M30 11.999C29.9854 10.6174 29.3181 9.31471 28.1814 8.44879L18.5886 1.20369C16.4806 -0.401229 13.4778 -0.401229 11.3698 1.20369L8.32951 3.29438C7.75831 3.6829 7.62779 4.43643 8.03798 4.97745C8.44816 5.51847 9.24373 5.6421 9.81493 5.25358L12.8968 3.07085C14.1065 2.12758 15.8519 2.12758 17.0616 3.07085L26.6544 10.3159C27.2065 10.7305 27.5327 11.3581 27.5428 12.0253V24.0698C27.5428 26.0305 25.8647 27.62 23.7946 27.62H20.9487C20.6573 27.62 20.4211 27.3963 20.4211 27.1204V21.6898C20.4211 19.9593 18.9441 18.5545 17.1171 18.5472H12.9524C12.0724 18.5472 11.2285 18.8783 10.6063 19.4677C9.98402 20.057 9.63446 20.8564 9.63446 21.6898V23.7674C9.63446 24.421 10.1938 24.9508 10.8839 24.9508C11.5739 24.9508 12.1333 24.421 12.1333 23.7674V21.6898C12.1296 21.4853 12.2128 21.2879 12.3642 21.142C12.5156 20.9962 12.7225 20.914 12.9385 20.914H17.1032C17.5479 20.914 17.9084 21.2555 17.9084 21.6767V27.1204C17.916 28.7056 19.275 29.9869 20.9487 29.9869H23.7252C27.183 29.9869 29.9861 27.3318 29.9861 24.0567L30 11.999Z" fill="white"/>
</svg>
