<svg width="30" height="30" viewBox="0 0 30 30" fill="none" xmlns="http://www.w3.org/2000/svg">
<g clip-path="url(#clip0_57_1763)">
<path d="M28.6816 20.5664L23.7656 20.584L20.8242 1.18357V1.17185C20.7246 0.5449 20.2266 0.0937283 19.623 0.0702908C19.0195 0.0468533 18.4922 0.457009 18.3457 1.06638L13.0957 23.9707L9.88477 10.4883L9.87891 10.4648C9.73242 9.8906 9.24609 9.49802 8.67773 9.4863C8.10938 9.48044 7.61133 9.84958 7.44727 10.4121L7.44141 10.4355L4.93359 20.3379L1.28906 20.332C0.644531 20.332 0.117188 20.8593 0.117188 21.5097C0.117188 22.1543 0.644531 22.6875 1.28906 22.6875H5.85938C6.39258 22.6523 6.83203 22.289 6.99023 21.7617L6.99609 21.7382L8.61914 15.3164L11.8828 29.0214L11.8887 29.039C12.082 29.7949 12.668 30.0586 13.1133 30.0586H13.125C13.5703 30.0586 14.1562 29.7832 14.3438 29.0156L19.3535 7.14841L21.5742 21.8203V21.832C21.668 22.4297 22.1426 22.8867 22.7227 22.9336L22.7754 22.9394L28.6816 22.916C29.3262 22.916 29.8535 22.3886 29.8477 21.7382C29.8535 21.0879 29.3262 20.5664 28.6816 20.5664Z" fill="white"/>
</g>
<defs>
<clipPath id="clip0_57_1763">
<rect width="30" height="30" fill="white"/>
</clipPath>
</defs>
</svg>
