<svg width="30" height="30" viewBox="0 0 30 30" fill="none" xmlns="http://www.w3.org/2000/svg">
<path d="M8.03572 17.1429C7.08213 17.1429 6.14995 16.8601 5.35707 16.3303C4.56419 15.8005 3.94622 15.0475 3.5813 14.1665C3.21637 13.2855 3.12089 12.3161 3.30693 11.3808C3.49296 10.4456 3.95216 9.58646 4.62645 8.91217C5.30074 8.23788 6.15983 7.77868 7.0951 7.59264C8.03037 7.40661 8.99979 7.50209 9.8808 7.86701C10.7618 8.23193 11.5148 8.84991 12.0446 9.64279C12.5744 10.4357 12.8571 11.3678 12.8571 12.3214C12.8543 13.5993 12.3454 14.824 11.4419 15.7276C10.5383 16.6311 9.31357 17.14 8.03572 17.1429ZM8.03572 9.64286C7.50594 9.64286 6.98807 9.79996 6.54758 10.0943C6.10709 10.3886 5.76377 10.8069 5.56104 11.2964C5.3583 11.7858 5.30526 12.3244 5.40861 12.844C5.51196 13.3636 5.76707 13.8409 6.14168 14.2155C6.51628 14.5901 6.99356 14.8452 7.51315 14.9485C8.03274 15.0519 8.57132 14.9988 9.06076 14.7961C9.55021 14.5934 9.96854 14.2501 10.2629 13.8096C10.5572 13.3691 10.7143 12.8512 10.7143 12.3214C10.7143 11.9697 10.645 11.6214 10.5104 11.2964C10.3758 10.9714 10.1785 10.6761 9.92975 10.4274C9.68102 10.1787 9.38574 9.98136 9.06076 9.84675C8.73578 9.71214 8.38747 9.64286 8.03572 9.64286ZM18.75 11.7857C17.5845 11.7857 16.4452 11.4401 15.4761 10.7926C14.507 10.1451 13.7517 9.22474 13.3057 8.14796C12.8597 7.07118 12.743 5.88632 12.9704 4.74322C13.1978 3.60012 13.759 2.55011 14.5831 1.72598C15.4073 0.90185 16.4573 0.340609 17.6004 0.113232C18.7435 -0.114145 19.9283 0.0025533 21.0051 0.44857C22.0819 0.894586 23.0022 1.64989 23.6497 2.61896C24.2972 3.58804 24.6429 4.72736 24.6429 5.89286C24.64 7.45487 24.0183 8.9521 22.9138 10.0566C21.8092 11.1611 20.312 11.7829 18.75 11.7857ZM18.75 2.14286C18.0083 2.14286 17.2833 2.36279 16.6666 2.77485C16.0499 3.1869 15.5693 3.77257 15.2855 4.4578C15.0016 5.14302 14.9274 5.89702 15.0721 6.62445C15.2168 7.35188 15.5739 8.02006 16.0984 8.54451C16.6228 9.06896 17.291 9.42611 18.0184 9.5708C18.7458 9.7155 19.4998 9.64124 20.1851 9.35741C20.8703 9.07358 21.456 8.59293 21.868 7.97625C22.2801 7.35956 22.5 6.63454 22.5 5.89286C22.5 4.8983 22.1049 3.94447 21.4017 3.24121C20.6984 2.53795 19.7446 2.14286 18.75 2.14286ZM10.1786 30H5.89286C4.32997 30 2.8311 29.3791 1.72598 28.274C0.620853 27.1689 0 25.67 0 24.1071C0 22.5443 0.620853 21.0454 1.72598 19.9403C2.8311 18.8351 4.32997 18.2143 5.89286 18.2143H10.1786C11.7415 18.2143 13.2403 18.8351 14.3455 19.9403C15.4506 21.0454 16.0714 22.5443 16.0714 24.1071C16.0714 25.67 15.4506 27.1689 14.3455 28.274C13.2403 29.3791 11.7415 30 10.1786 30ZM5.89286 20.3571C4.8983 20.3571 3.94447 20.7522 3.24121 21.4555C2.53795 22.1588 2.14286 23.1126 2.14286 24.1071C2.14286 25.1017 2.53795 26.0555 3.24121 26.7588C3.94447 27.4621 4.8983 27.8571 5.89286 27.8571H10.1786C11.1731 27.8571 12.127 27.4621 12.8302 26.7588C13.5335 26.0555 13.9286 25.1017 13.9286 24.1071C13.9286 23.1126 13.5335 22.1588 12.8302 21.4555C12.127 20.7522 11.1731 20.3571 10.1786 20.3571H5.89286Z" fill="white"/>
<path d="M21.9643 30.0001H10.7143C10.4302 30.0001 10.1576 29.8873 9.9567 29.6863C9.75577 29.4854 9.64288 29.2129 9.64288 28.9287C9.64288 28.6445 9.75577 28.372 9.9567 28.1711C10.1576 27.9702 10.4302 27.8573 10.7143 27.8573H21.9643C23.5272 27.8573 25.0261 27.2364 26.1312 26.1313C27.2363 25.0262 27.8572 23.5273 27.8572 21.9644C27.8572 20.4015 27.2363 18.9027 26.1312 17.7975C25.0261 16.6924 23.5272 16.0716 21.9643 16.0716H15.5357C15.2516 16.0716 14.9791 15.9587 14.7781 15.7578C14.5772 15.5568 14.4643 15.2843 14.4643 15.0001C14.4643 14.716 14.5772 14.4435 14.7781 14.2425C14.9791 14.0416 15.2516 13.9287 15.5357 13.9287H21.9643C24.0955 13.9287 26.1394 14.7753 27.6464 16.2823C29.1534 17.7893 30 19.8332 30 21.9644C30 24.0956 29.1534 26.1395 27.6464 27.6465C26.1394 29.1535 24.0955 30.0001 21.9643 30.0001Z" fill="white"/>
</svg>
