<svg width="30" height="30" viewBox="0 0 30 30" fill="none" xmlns="http://www.w3.org/2000/svg">
<path d="M24.5636 10.7143H5.33992C3.92368 10.7143 2.56545 10.1499 1.56403 9.14522C0.562597 8.14056 0 6.77795 0 5.35714C0 3.93634 0.562597 2.57373 1.56403 1.56907C2.56545 0.564412 3.92368 0 5.33992 0H24.5636C24.8469 0 25.1185 0.112882 25.3188 0.313814C25.5191 0.514746 25.6316 0.787268 25.6316 1.07143C25.6316 1.35559 25.5191 1.62811 25.3188 1.82904C25.1185 2.02997 24.8469 2.14286 24.5636 2.14286H5.33992C4.49018 2.14286 3.67524 2.4815 3.07438 3.0843C2.47353 3.6871 2.13597 4.50466 2.13597 5.35714C2.13597 6.20962 2.47353 7.02719 3.07438 7.62999C3.67524 8.23278 4.49018 8.57143 5.33992 8.57143H24.5636C24.8469 8.57143 25.1185 8.68431 25.3188 8.88524C25.5191 9.08617 25.6316 9.3587 25.6316 9.64286C25.6316 9.92702 25.5191 10.1995 25.3188 10.4005C25.1185 10.6014 24.8469 10.7143 24.5636 10.7143Z" fill="white"/>
<path d="M26.6996 29.9999H3.20395C2.35421 29.9999 1.53927 29.6613 0.938415 29.0585C0.337558 28.4557 0 27.6381 0 26.7856V5.35707C0 5.07291 0.112519 4.80039 0.312805 4.59946C0.513091 4.39853 0.784737 4.28564 1.06798 4.28564C1.35123 4.28564 1.62288 4.39853 1.82316 4.59946C2.02345 4.80039 2.13597 5.07291 2.13597 5.35707V26.7856C2.13597 27.0698 2.24849 27.3423 2.44877 27.5433C2.64906 27.7442 2.9207 27.8571 3.20395 27.8571H26.6996C26.9828 27.8571 27.2545 27.7442 27.4548 27.5433C27.6551 27.3423 27.7676 27.0698 27.7676 26.7856V11.7856C27.7676 11.5015 27.6551 11.229 27.4548 11.028C27.2545 10.8271 26.9828 10.7142 26.6996 10.7142H6.4079C6.12465 10.7142 5.85301 10.6013 5.65272 10.4004C5.45244 10.1995 5.33992 9.92695 5.33992 9.64279C5.33992 9.35863 5.45244 9.0861 5.65272 8.88517C5.85301 8.68424 6.12465 8.57136 6.4079 8.57136H26.6996C27.5493 8.57136 28.3643 8.91001 28.9651 9.5128C29.566 10.1156 29.9035 10.9332 29.9035 11.7856V26.7856C29.9035 27.6381 29.566 28.4557 28.9651 29.0585C28.3643 29.6613 27.5493 29.9999 26.6996 29.9999Z" fill="white"/>
<path d="M24.5636 6.4285H5.3399C5.05665 6.4285 4.785 6.31562 4.58472 6.11469C4.38443 5.91376 4.27191 5.64123 4.27191 5.35707C4.27191 5.07291 4.38443 4.80039 4.58472 4.59946C4.785 4.39853 5.05665 4.28564 5.3399 4.28564H24.5636C24.8468 4.28564 25.1185 4.39853 25.3188 4.59946C25.5191 4.80039 25.6316 5.07291 25.6316 5.35707C25.6316 5.64123 25.5191 5.91376 25.3188 6.11469C25.1185 6.31562 24.8468 6.4285 24.5636 6.4285ZM13.8838 23.5714C13.7166 23.5704 13.552 23.53 13.4032 23.4535L9.61183 21.5571L5.82049 23.4535C5.65791 23.5357 5.47709 23.5748 5.29519 23.5672C5.1133 23.5595 4.93637 23.5054 4.78121 23.4098C4.62606 23.3143 4.49782 23.1805 4.40868 23.0213C4.31954 22.862 4.27246 22.6826 4.27191 22.4999V9.64279C4.27191 9.35863 4.38443 9.0861 4.58472 8.88517C4.785 8.68424 5.05665 8.57136 5.3399 8.57136C5.62314 8.57136 5.89479 8.68424 6.09507 8.88517C6.29536 9.0861 6.40788 9.35863 6.40788 9.64279V20.7642L9.13124 19.4035C9.2803 19.3281 9.4449 19.2889 9.61183 19.2889C9.77875 19.2889 9.94335 19.3281 10.0924 19.4035L12.8158 20.7642V9.64279C12.8158 9.35863 12.9283 9.0861 13.1286 8.88517C13.3289 8.68424 13.6005 8.57136 13.8838 8.57136C14.167 8.57136 14.4387 8.68424 14.6389 8.88517C14.8392 9.0861 14.9517 9.35863 14.9517 9.64279V22.4999C14.9521 22.682 14.9062 22.8612 14.8184 23.0205C14.7306 23.1799 14.6037 23.3141 14.4498 23.4106C14.2798 23.5163 14.0837 23.572 13.8838 23.5714Z" fill="white"/>
</svg>
