<svg width="32" height="50" viewBox="0 0 32 50" fill="none" xmlns="http://www.w3.org/2000/svg">
<path d="M0.868845 26.951L25.1082 49.2012C25.6688 49.7163 26.4172 50 27.2152 50C28.0132 50 28.7616 49.7163 29.3222 49.2012L31.1072 47.563C32.2688 46.4956 32.2688 44.7606 31.1072 43.6948L10.7529 25.0104L31.1298 6.30523C31.6905 5.7902 32 5.10362 32 4.37151C32 3.63859 31.6905 2.95201 31.1298 2.43657L29.3448 0.798775C28.7837 0.283737 28.0358 0 27.2378 0C26.4398 0 25.6914 0.283737 25.1308 0.798775L0.868845 23.0693C0.30689 23.586 -0.00176239 24.2758 7.62939e-06 25.0091C-0.00176239 25.7453 0.30689 26.4347 0.868845 26.951Z" fill="#5F5555"/>
</svg>
