<svg width="32" height="50" viewBox="0 0 32 50" fill="none" xmlns="http://www.w3.org/2000/svg">
<path d="M31.1312 23.049L6.89181 0.798774C6.33118 0.283738 5.58279 0 4.78481 0C3.98682 0 3.23844 0.283738 2.67781 0.798774L0.892752 2.43697C-0.268799 3.50444 -0.268799 5.23939 0.892752 6.30523L21.2471 24.9896L0.870167 43.6948C0.30954 44.2098 0 44.8964 0 45.6285C0 46.3614 0.30954 47.048 0.870167 47.5634L2.65523 49.2012C3.2163 49.7163 3.96424 50 4.76223 50C5.56021 50 6.3086 49.7163 6.86922 49.2012L31.1312 26.9307C31.6931 26.414 32.0018 25.7242 32 24.9909C32.0018 24.2547 31.6931 23.5653 31.1312 23.049Z" fill="#5F5555"/>
</svg>
