<svg width="30" height="26" viewBox="0 0 30 26" fill="none" xmlns="http://www.w3.org/2000/svg">
<path fill-rule="evenodd" clip-rule="evenodd" d="M10.893 0C8.86047 0 7.13619 1.30382 6.46855 3.11728C4.69061 3.23667 3.11188 4.34423 2.4177 6.0138C2.07931 6.82753 1.99222 7.69761 2.11493 8.53447C0.479342 9.88055 -0.302802 12.0215 0.107817 14.1161C0.370925 15.4584 1.0936 16.6347 2.11005 17.4715C1.89162 18.9813 2.40029 20.5163 3.50672 21.5828C4.32115 22.3679 5.37592 22.8124 6.471 22.8862C7.22848 24.946 9.30663 26.2508 11.5108 25.9595C13.0239 25.7594 14.2871 24.844 15 23.5858C15.7129 24.844 16.9761 25.7594 18.4892 25.9595C20.6934 26.2508 22.7715 24.946 23.529 22.8862C24.6241 22.8121 25.6789 22.3679 26.4933 21.5828C27.5997 20.5163 28.1084 18.9813 27.89 17.4715C28.9064 16.6347 29.6291 15.4584 29.8922 14.1161C30.3028 12.0215 29.5207 9.88055 27.8851 8.53447C28.0078 7.69761 27.9207 6.82753 27.5823 6.0138C26.8884 4.34499 25.3108 3.23704 23.5339 3.11728C22.8656 1.30382 21.1395 0 19.107 0C17.3397 0 15.8125 0.991567 15 2.43982C14.1876 0.991567 12.6603 0 10.893 0ZM10.893 1.25673C12.8242 1.25673 14.3749 2.81454 14.3749 4.75216C14.3745 4.76598 14.3745 4.77976 14.3749 4.79358V21.2464C14.3749 23.0051 13.085 24.4825 11.3472 24.7122C9.84059 24.9113 8.42012 24.1142 7.77244 22.7926C7.85134 22.7763 7.93084 22.7675 8.00929 22.7461C8.16957 22.7032 8.30631 22.5981 8.38942 22.4538C8.47253 22.3094 8.49521 22.1378 8.45247 21.9766C8.40973 21.8155 8.30507 21.6781 8.16151 21.5945C8.01796 21.511 7.84726 21.4882 7.68698 21.5311C6.50852 21.8482 5.25336 21.531 4.37354 20.677C3.69747 20.0252 3.32617 19.1378 3.30894 18.22C3.61661 18.3657 3.93285 18.4955 4.26855 18.5858C4.42882 18.6288 4.59952 18.6059 4.74307 18.5223C4.88663 18.4388 4.99129 18.3015 5.03403 18.1403C5.07677 17.9792 5.05409 17.8075 4.97098 17.6632C4.88787 17.5189 4.75113 17.4138 4.59086 17.3708C2.92763 16.9234 1.6659 15.5686 1.33357 13.8731C1.04621 12.4071 1.49958 10.9139 2.51293 9.85977C2.74148 10.3489 3.04408 10.809 3.43835 11.2049C3.49593 11.2653 3.56492 11.3135 3.64128 11.3468C3.71765 11.38 3.79985 11.3976 3.88306 11.3985C3.96628 11.3994 4.04884 11.3836 4.12589 11.352C4.20295 11.3204 4.27295 11.2737 4.3318 11.2145C4.39065 11.1554 4.43715 11.085 4.46859 11.0076C4.50003 10.9301 4.51576 10.8472 4.51488 10.7635C4.51399 10.6798 4.49649 10.5971 4.46342 10.5203C4.43034 10.4436 4.38235 10.3742 4.32226 10.3163C3.3226 9.31269 3.0257 7.80642 3.57021 6.49704C4.03539 5.3783 5.0349 4.60212 6.19752 4.40331C6.18886 4.52018 6.1609 4.63274 6.16089 4.75201C6.15972 4.83528 6.17502 4.91789 6.2059 4.99516C6.23679 5.07243 6.28264 5.14281 6.3408 5.20211C6.39897 5.26141 6.46827 5.3085 6.5447 5.34064C6.62112 5.37278 6.70314 5.38927 6.78598 5.38927C6.86882 5.38927 6.95084 5.37278 7.02727 5.34064C7.10369 5.3085 7.173 5.26141 7.23116 5.20211C7.28932 5.14281 7.33518 5.07243 7.36606 4.99516C7.39695 4.91789 7.41224 4.83528 7.41107 4.75201C7.41109 2.81438 8.96183 1.25673 10.893 1.25673ZM19.107 1.25673C21.0382 1.25673 22.5914 2.81454 22.5914 4.75216C22.5902 4.83543 22.6055 4.91804 22.6364 4.99531C22.6673 5.07258 22.7131 5.14296 22.7713 5.20226C22.8295 5.26156 22.8988 5.3085 22.9752 5.34064C23.0516 5.37278 23.1336 5.38942 23.2165 5.38942C23.2993 5.38942 23.3813 5.37278 23.4577 5.34064C23.5342 5.3085 23.6035 5.26156 23.6616 5.20226C23.7198 5.14296 23.7656 5.07258 23.7965 4.99531C23.8274 4.91804 23.8427 4.83543 23.8415 4.75216C23.8415 4.63277 23.8136 4.52046 23.8049 4.40346C24.9665 4.6029 25.9649 5.3792 26.4298 6.49719C26.9743 7.80658 26.6774 9.31284 25.6777 10.3165C25.6176 10.3743 25.5697 10.4437 25.5366 10.5205C25.5035 10.5973 25.486 10.6798 25.4851 10.7635C25.4842 10.8472 25.5 10.9303 25.5314 11.0077C25.5628 11.0852 25.6093 11.1555 25.6682 11.2147C25.727 11.2738 25.797 11.3205 25.8741 11.3521C25.9512 11.3837 26.0337 11.3995 26.1169 11.3986C26.2002 11.3977 26.2824 11.3802 26.3587 11.3469C26.4351 11.3137 26.5041 11.2654 26.5616 11.205C26.9559 10.8091 27.2585 10.349 27.4871 9.85992C28.5004 10.9141 28.9538 12.4071 28.6664 13.8731C28.3341 15.5686 27.0724 16.9234 25.4091 17.3708C25.2489 17.4138 25.1121 17.5191 25.029 17.6634C24.9459 17.8077 24.9232 17.9792 24.966 18.1403C25.0087 18.3015 25.1134 18.4389 25.2569 18.5225C25.4005 18.606 25.5712 18.6288 25.7315 18.5858C26.0672 18.4954 26.3834 18.3659 26.6911 18.2201C26.6738 19.1379 26.3025 20.0254 25.6265 20.6771C24.7466 21.5312 23.4915 21.8484 22.313 21.5313C22.2337 21.51 22.1509 21.5046 22.0695 21.5155C21.9881 21.5264 21.9096 21.5533 21.8385 21.5947C21.7674 21.636 21.7051 21.6911 21.6552 21.7567C21.6053 21.8222 21.5687 21.897 21.5475 21.9768C21.5264 22.0566 21.521 22.1398 21.5319 22.2216C21.5427 22.3035 21.5694 22.3824 21.6106 22.4539C21.6517 22.5254 21.7065 22.588 21.7717 22.6381C21.8369 22.6883 21.9113 22.725 21.9907 22.7463C22.0692 22.7677 22.1486 22.7764 22.2276 22.7928C21.5799 24.1144 20.1594 24.9115 18.6528 24.7124C16.915 24.4827 15.6251 23.0052 15.6251 21.2466V4.75201C15.6251 2.81438 17.1758 1.25673 19.107 1.25673ZM10.8295 2.06182C10.7474 2.06601 10.667 2.08635 10.5927 2.1218C10.5185 2.15725 10.4519 2.20715 10.3968 2.26846C10.3417 2.32978 10.2992 2.40141 10.2716 2.47925C10.244 2.55709 10.232 2.63958 10.2362 2.72209C10.2403 2.80461 10.2606 2.88555 10.2959 2.96019C10.3312 3.03482 10.3807 3.10162 10.4417 3.15701C10.5027 3.2124 10.5739 3.25525 10.6514 3.28296C10.7288 3.31067 10.8109 3.32274 10.893 3.31855C11.6899 3.31855 12.3214 3.95338 12.3214 4.75216C12.3202 4.83543 12.3355 4.91804 12.3664 4.99531C12.3973 5.07258 12.4432 5.14296 12.5013 5.20226C12.5595 5.26156 12.6288 5.3085 12.7052 5.34064C12.7816 5.37278 12.8637 5.38942 12.9465 5.38942C13.0293 5.38942 13.1113 5.37278 13.1878 5.34064C13.2642 5.3085 13.3335 5.26156 13.3917 5.20226C13.4498 5.14296 13.4957 5.07258 13.5266 4.99531C13.5574 4.91804 13.5728 4.83543 13.5716 4.75216C13.5716 3.27324 12.3647 2.06182 10.893 2.06182C10.8718 2.06074 10.8507 2.06074 10.8295 2.06182ZM19.107 2.06182C17.6353 2.06182 16.4284 3.27324 16.4284 4.75216C16.4272 4.83543 16.4426 4.91804 16.4734 4.99531C16.5043 5.07258 16.5502 5.14296 16.6083 5.20226C16.6665 5.26156 16.7358 5.3085 16.8122 5.34064C16.8887 5.37278 16.9707 5.38942 17.0535 5.38942C17.1363 5.38942 17.2184 5.37278 17.2948 5.34064C17.3712 5.3085 17.4405 5.26156 17.4987 5.20226C17.5568 5.14296 17.6027 5.07258 17.6336 4.99531C17.6645 4.91804 17.6798 4.83543 17.6786 4.75216C17.6786 3.95338 18.3101 3.31855 19.107 3.31855C19.1898 3.31973 19.2721 3.30434 19.3489 3.27329C19.4258 3.24224 19.4958 3.19615 19.5548 3.13768C19.6137 3.07921 19.6606 3.00955 19.6926 2.93273C19.7245 2.8559 19.741 2.77346 19.741 2.69019C19.741 2.60691 19.7245 2.52447 19.6926 2.44765C19.6606 2.37082 19.6137 2.30116 19.5548 2.24269C19.4958 2.18422 19.4258 2.13813 19.3489 2.10708C19.2721 2.07603 19.1898 2.06064 19.107 2.06182ZM7.08632 6.02837C6.98656 6.02748 6.88805 6.0507 6.79899 6.09587C6.70993 6.14105 6.63291 6.2069 6.57436 6.28809C6.51582 6.36928 6.47744 6.46341 6.46243 6.56254C6.44742 6.66168 6.45622 6.76299 6.48809 6.85801C6.57368 7.11576 6.68137 7.36239 6.80796 7.59928C6.28214 7.54901 5.7503 7.55161 5.22327 7.64837C5.13969 7.66014 5.05935 7.68878 4.98709 7.73259C4.91483 7.77641 4.85215 7.83451 4.80281 7.90334C4.75348 7.97217 4.71852 8.05037 4.70004 8.13315C4.68156 8.21592 4.67994 8.30147 4.69528 8.38489C4.71062 8.46831 4.7426 8.54772 4.7893 8.61838C4.836 8.68904 4.89645 8.74948 4.967 8.79603C5.03756 8.84257 5.11675 8.87435 5.19982 8.8893C5.28289 8.90425 5.36811 8.90206 5.45035 8.88301C6.50444 8.68847 7.59157 8.88305 8.51962 9.41565C8.52766 9.42002 8.5358 9.42422 8.54403 9.42823C8.54885 9.43249 8.55373 9.43669 8.55868 9.44081C8.57227 9.44802 8.58611 9.45472 8.60019 9.4609C8.61622 9.46745 8.63251 9.47336 8.64902 9.47855C8.65464 9.48283 8.66034 9.48703 8.6661 9.49113C8.67576 9.49556 8.68553 9.49977 8.6954 9.50371C8.70909 9.50838 8.72294 9.51258 8.73692 9.51628C8.75704 9.52149 8.77741 9.5257 8.79795 9.52886C8.81829 9.52986 8.83866 9.52986 8.85899 9.52886C8.87445 9.52944 8.88992 9.52944 8.90538 9.52886C8.94681 9.5246 8.98771 9.51615 9.02747 9.50371C9.03316 9.50378 9.03886 9.50378 9.04455 9.50371C9.0783 9.49188 9.11098 9.47712 9.14223 9.45968C9.14718 9.45556 9.15206 9.45136 9.15688 9.4471C9.17023 9.4388 9.18326 9.43 9.19594 9.42071C9.20008 9.41658 9.20417 9.41238 9.20819 9.40813C9.22075 9.39896 9.23297 9.38938 9.24482 9.37929C9.24896 9.37516 9.25304 9.37096 9.25707 9.36671C9.26889 9.35584 9.2803 9.34455 9.29125 9.33281C9.29456 9.32866 9.29781 9.32446 9.301 9.32023C9.33993 9.27752 9.3728 9.22947 9.39868 9.17771H9.40118C9.40285 9.17354 9.40447 9.16949 9.40605 9.16528C9.42122 9.13207 9.43347 9.09755 9.44268 9.06219C9.44437 9.05719 9.44599 9.05221 9.44755 9.04716C9.45139 9.03179 9.45464 9.01614 9.4573 9.00052C9.4582 8.99551 9.45903 8.99053 9.4598 8.98549C9.46466 8.94884 9.46629 8.91182 9.46468 8.87488C9.46474 8.86985 9.46474 8.86487 9.46468 8.85985C9.46369 8.84345 9.46207 8.82702 9.4598 8.81076C9.45903 8.80572 9.4582 8.80074 9.4573 8.79572C9.45464 8.7801 9.45139 8.76461 9.44755 8.74924C9.44599 8.74419 9.44437 8.73921 9.44268 8.7342C9.43913 8.7194 9.43504 8.70468 9.43043 8.69018C9.42887 8.68513 9.42724 8.68015 9.42555 8.67514C9.4196 8.66023 9.41309 8.64552 9.40602 8.63111C9.40362 8.62605 9.40117 8.62107 9.39864 8.61608C9.39183 8.60198 9.3845 8.58805 9.37667 8.57451C9.37426 8.57029 9.3718 8.56609 9.36929 8.56193C9.36083 8.5486 9.35187 8.5356 9.34243 8.52296C9.32658 8.50222 9.30945 8.48249 9.29115 8.4639C9.281 8.4522 9.27041 8.44091 9.25942 8.42999C9.25539 8.42575 9.25131 8.42155 9.24717 8.41741C9.23532 8.40733 9.2231 8.39775 9.21054 8.38857C9.20652 8.38433 9.20243 8.38013 9.19829 8.37599C9.18559 8.36713 9.17255 8.35872 9.15923 8.35083C8.45954 7.92066 7.93401 7.25674 7.67465 6.47556C7.63375 6.35078 7.555 6.24207 7.44946 6.1646C7.34391 6.08713 7.21687 6.04473 7.08619 6.04356L7.08632 6.02837ZM22.9137 6.02837C22.783 6.02954 22.656 6.07194 22.5504 6.14941C22.4449 6.22688 22.3661 6.3356 22.3252 6.46037C22.0659 7.24155 21.5403 7.90547 20.8406 8.33565C20.8349 8.33974 20.8292 8.34394 20.8236 8.34823C20.8162 8.35227 20.8088 8.35647 20.8016 8.36081C20.7974 8.36494 20.7934 8.36914 20.7893 8.37339C20.7768 8.38256 20.7646 8.39214 20.7527 8.40223C20.7486 8.40636 20.7445 8.41056 20.7405 8.41481C20.7295 8.42572 20.7189 8.43701 20.7087 8.44871C20.6846 8.47364 20.6625 8.50065 20.6428 8.52925C20.6369 8.53707 20.6312 8.54494 20.6257 8.55303C20.6197 8.56334 20.614 8.57384 20.6086 8.58448C20.6053 8.59112 20.602 8.59781 20.5989 8.60457C20.5946 8.61286 20.5905 8.62126 20.5866 8.62973C20.5813 8.64255 20.5764 8.65555 20.572 8.6687H20.5695C20.5649 8.68321 20.5608 8.69792 20.5572 8.71273C20.5525 8.72889 20.5484 8.74517 20.545 8.76166C20.5441 8.76752 20.5432 8.77343 20.5425 8.77931C20.5406 8.78932 20.539 8.79928 20.5376 8.80937C20.5365 8.81899 20.5357 8.82872 20.5351 8.83837C20.535 8.8434 20.535 8.84838 20.5351 8.8534C20.5337 8.89376 20.5362 8.93425 20.5425 8.97414C20.5432 8.98001 20.5441 8.98577 20.545 8.99162C20.5471 9.003 20.5496 9.01429 20.5523 9.02553C20.5539 9.03058 20.5555 9.03571 20.5572 9.04072C20.5673 9.08053 20.5812 9.11915 20.5987 9.15623H20.6012H20.6037C20.6292 9.20613 20.6613 9.25249 20.699 9.29384C20.7022 9.29807 20.7054 9.30227 20.7087 9.30642C20.7197 9.31817 20.7311 9.32946 20.7429 9.34032C20.7469 9.34457 20.751 9.34877 20.7551 9.3529C20.767 9.36299 20.7792 9.37257 20.7918 9.38175C20.7958 9.38599 20.7999 9.39019 20.804 9.39432C20.8167 9.40361 20.8297 9.41241 20.8431 9.42071C20.8479 9.42498 20.8528 9.42918 20.8577 9.43329C20.8951 9.45358 20.9343 9.46993 20.9749 9.48223C21.0287 9.49935 21.0846 9.50916 21.141 9.51122C21.1459 9.51128 21.1508 9.51128 21.1556 9.51122C21.1711 9.5118 21.1866 9.5118 21.202 9.51122C21.2077 9.5113 21.2134 9.5113 21.2191 9.51122C21.2339 9.50757 21.2486 9.50337 21.2631 9.49864C21.2688 9.49872 21.2745 9.49872 21.2801 9.49864C21.2949 9.49499 21.3096 9.49079 21.3241 9.48606C21.3298 9.48614 21.3355 9.48614 21.3412 9.48606C21.3899 9.47131 21.4366 9.45069 21.4804 9.42455H21.4901H21.495C22.4199 8.89295 23.5009 8.70574 24.5496 8.89927C24.6318 8.91832 24.7171 8.92052 24.8001 8.90556C24.8832 8.89061 24.9624 8.85884 25.033 8.81229C25.1035 8.76574 25.164 8.7053 25.2107 8.63464C25.2574 8.56398 25.2893 8.48457 25.3047 8.40115C25.32 8.31773 25.3184 8.23203 25.2999 8.14925C25.2814 8.06648 25.2465 7.98843 25.1971 7.9196C25.1478 7.85077 25.0851 7.79268 25.0129 7.74886C24.9406 7.70504 24.8603 7.67641 24.7767 7.66463C24.2497 7.56787 23.7178 7.56527 23.192 7.61554C23.3184 7.37865 23.4263 7.13203 23.5119 6.87427C23.5437 6.77925 23.5525 6.67794 23.5375 6.5788C23.5225 6.47967 23.4841 6.38554 23.4256 6.30435C23.367 6.22317 23.29 6.15715 23.201 6.11198C23.1119 6.0668 23.0134 6.04374 22.9136 6.04463L22.9137 6.02837ZM11.4082 7.98219C11.2998 7.9864 11.1944 8.019 11.1023 8.07654C11.0102 8.13408 10.9346 8.21468 10.8829 8.31049C10.8312 8.4063 10.8051 8.514 10.8073 8.62298C10.8095 8.73197 10.8399 8.83848 10.8954 8.9321C11.5686 10.1029 11.3764 11.5721 10.4242 12.5282C10.3648 12.5863 10.3176 12.6555 10.2851 12.7321C10.2526 12.8086 10.2356 12.891 10.235 12.9743C10.2344 13.0575 10.2502 13.1401 10.2816 13.2171C10.313 13.2942 10.3592 13.3642 10.4177 13.4232C10.4762 13.4821 10.5457 13.5287 10.6223 13.5605C10.6989 13.5922 10.7809 13.6084 10.8638 13.608C10.9466 13.6076 11.0285 13.5908 11.1048 13.5583C11.181 13.5259 11.2501 13.4785 11.3081 13.419C12.6564 12.0653 12.9331 9.96199 11.9796 8.30374C11.9232 8.20229 11.84 8.11856 11.7391 8.06181C11.6382 8.00506 11.5237 7.97744 11.4082 7.98219ZM18.5283 7.98219C18.4236 7.98865 18.3222 8.02159 18.2335 8.07777C18.1447 8.13394 18.0715 8.21163 18.0204 8.30374C17.0669 9.96199 17.3436 12.0653 18.6919 13.419C18.7499 13.4785 18.819 13.5259 18.8952 13.5583C18.9715 13.5908 19.0534 13.6076 19.1362 13.608C19.2191 13.6084 19.3011 13.5922 19.3777 13.5605C19.4543 13.5287 19.5238 13.4821 19.5823 13.4232C19.6408 13.3642 19.6871 13.2942 19.7184 13.2171C19.7498 13.1401 19.7656 13.0575 19.765 12.9743C19.7644 12.891 19.7474 12.8086 19.7149 12.7321C19.6824 12.6555 19.6352 12.5863 19.5758 12.5282C18.6236 11.5721 18.4314 10.1029 19.1046 8.9321C19.1601 8.83848 19.1905 8.73197 19.1927 8.62298C19.1949 8.514 19.1688 8.4063 19.1171 8.31049C19.0654 8.21468 18.9898 8.13408 18.8977 8.07654C18.8056 8.019 18.7002 7.9864 18.5918 7.98219C18.5707 7.98111 18.5495 7.98111 18.5283 7.98219ZM2.74734 12.7808C2.65491 12.7881 2.56526 12.816 2.48487 12.8624C2.40448 12.9089 2.33537 12.9727 2.28255 13.0493C2.22973 13.1259 2.19451 13.2134 2.17946 13.3053C2.1644 13.3973 2.16989 13.4914 2.19551 13.581C2.38725 14.2995 2.76567 14.955 3.28941 15.4808C3.34619 15.5444 3.41527 15.5958 3.49245 15.6316C3.56962 15.6675 3.65326 15.6872 3.73824 15.6895C3.82323 15.6917 3.90778 15.6764 3.98672 15.6447C4.06566 15.613 4.13734 15.5654 4.19737 15.5049C4.25739 15.4444 4.30451 15.3722 4.33584 15.2928C4.36717 15.2133 4.38205 15.1283 4.37957 15.0429C4.37709 14.9574 4.3573 14.8735 4.32142 14.796C4.28554 14.7185 4.23431 14.6492 4.17088 14.5923C3.80237 14.2223 3.539 13.7598 3.40417 13.2546C3.37051 13.1212 3.29423 13.0027 3.18705 12.9171C3.07986 12.8315 2.94769 12.7836 2.81083 12.7808C2.78968 12.7798 2.76849 12.7798 2.74734 12.7808ZM27.1867 12.7808C27.0503 12.7841 26.9187 12.8323 26.812 12.9178C26.7053 13.0034 26.6294 13.1216 26.5958 13.2546C26.461 13.7598 26.1976 14.2223 25.8291 14.5923C25.7657 14.6492 25.7145 14.7185 25.6786 14.796C25.6427 14.8735 25.6229 14.9574 25.6204 15.0429C25.618 15.1283 25.6328 15.2133 25.6642 15.2928C25.6955 15.3722 25.7426 15.4444 25.8026 15.5049C25.8627 15.5654 25.9343 15.613 26.0133 15.6447C26.0922 15.6764 26.1768 15.6917 26.2618 15.6895C26.3467 15.6872 26.4304 15.6675 26.5076 15.6316C26.5847 15.5958 26.6538 15.5444 26.7106 15.4808C27.2343 14.955 27.6128 14.2995 27.8045 13.581C27.8313 13.4864 27.8356 13.3868 27.817 13.2902C27.7985 13.1935 27.7576 13.1026 27.6978 13.0248C27.6379 12.9469 27.5607 12.8843 27.4724 12.8419C27.384 12.7995 27.287 12.7786 27.1892 12.7808H27.1867ZM9.8699 17.523C9.83379 17.5241 9.79785 17.5283 9.76246 17.5356H9.75996C9.70057 17.5461 9.643 17.5652 9.58904 17.5922C9.58579 17.5922 9.58254 17.5922 9.57929 17.5922C9.57604 17.5922 9.57279 17.5922 9.56954 17.5922C9.56213 17.5963 9.55481 17.6005 9.54757 17.6048C9.54262 17.6089 9.53773 17.6131 9.53292 17.6174C8.60797 18.149 7.52452 18.3362 6.47586 18.1426C6.39328 18.1229 6.30757 18.1202 6.22394 18.1348C6.14031 18.1494 6.06052 18.181 5.98943 18.2276C5.91833 18.2743 5.85743 18.335 5.81043 18.406C5.76343 18.4771 5.73131 18.557 5.71604 18.6409C5.70076 18.7249 5.70266 18.811 5.7216 18.8942C5.74054 18.9774 5.77613 19.0559 5.8262 19.1248C5.87628 19.1937 5.93979 19.2515 6.01285 19.2949C6.08592 19.3383 6.16703 19.3664 6.25121 19.3773C6.7787 19.4753 7.3101 19.4765 7.83591 19.4262C7.70954 19.663 7.60162 19.9097 7.51604 20.1675C7.48494 20.2469 7.47025 20.3318 7.47287 20.4171C7.47548 20.5024 7.49534 20.5862 7.53123 20.6635C7.56712 20.7408 7.6183 20.8099 7.68164 20.8667C7.74499 20.9235 7.81917 20.9667 7.89967 20.9938C7.98017 21.0208 8.0653 21.0311 8.14987 21.024C8.23445 21.0169 8.31669 20.9924 8.3916 20.9523C8.46651 20.9122 8.53251 20.8572 8.58558 20.7906C8.63865 20.7241 8.67767 20.6474 8.70028 20.5651C8.95777 19.7896 9.47805 19.1303 10.1702 18.6998C10.1727 18.6998 10.1751 18.6998 10.1776 18.6998H10.185C10.2386 18.6679 10.2871 18.6281 10.329 18.5817C10.3392 18.5707 10.349 18.5593 10.3583 18.5476C10.451 18.4285 10.4978 18.2799 10.4902 18.1288C10.4826 17.9778 10.421 17.8345 10.3168 17.7254C10.3074 17.715 10.2976 17.705 10.2875 17.6953C10.2819 17.6902 10.2762 17.685 10.2704 17.6801H10.2679C10.2209 17.6399 10.1683 17.6068 10.1117 17.5821C10.0996 17.5767 10.0874 17.5717 10.075 17.5671C10.0678 17.5627 10.0605 17.5585 10.0531 17.5545H10.0482C10.0297 17.5486 10.011 17.5436 9.99204 17.5394C9.97916 17.5348 9.96613 17.5306 9.95298 17.5269C9.93124 17.5215 9.90924 17.5173 9.88705 17.5143C9.88136 17.5142 9.87566 17.5142 9.86997 17.5143L9.8699 17.523ZM20.1081 17.523C20.0534 17.5255 19.9992 17.5353 19.947 17.552H19.9421C19.8643 17.5771 19.7921 17.6172 19.7297 17.6701H19.7272C19.6509 17.7356 19.5913 17.8185 19.5536 17.9119C19.5159 18.0053 19.5011 18.1064 19.5104 18.2068C19.5197 18.3071 19.553 18.4038 19.6073 18.4886C19.6616 18.5733 19.7354 18.6436 19.8224 18.6937C20.5183 19.1241 21.0412 19.7858 21.2997 20.5641C21.3223 20.6463 21.3613 20.723 21.4144 20.7896C21.4674 20.8561 21.5334 20.9112 21.6083 20.9513C21.6832 20.9914 21.7655 21.0158 21.8501 21.0229C21.9346 21.03 22.0198 21.0197 22.1003 20.9927C22.1808 20.9657 22.2549 20.9224 22.3183 20.8657C22.3816 20.8089 22.4328 20.7397 22.4687 20.6624C22.5046 20.5851 22.5245 20.5013 22.5271 20.416C22.5297 20.3307 22.515 20.2458 22.4839 20.1664C22.3983 19.9087 22.2904 19.6619 22.164 19.4251C22.6898 19.4742 23.2212 19.473 23.7487 19.3762C23.8329 19.3653 23.914 19.3372 23.9871 19.2938C24.0601 19.2504 24.1237 19.1924 24.1737 19.1235C24.2238 19.0546 24.2594 18.9763 24.2783 18.8931C24.2973 18.8099 24.2992 18.7238 24.2839 18.6398C24.2686 18.5559 24.2365 18.4759 24.1895 18.4048C24.1425 18.3338 24.0816 18.2732 24.0105 18.2266C23.9394 18.1799 23.8596 18.1484 23.776 18.1337C23.6924 18.1191 23.6066 18.1218 23.5241 18.1416C22.4754 18.3351 21.392 18.1416 20.467 17.6163C20.4646 17.6163 20.4621 17.6163 20.4596 17.6163C20.4574 17.615 20.4545 17.6152 20.4523 17.6163C20.445 17.612 20.4377 17.6078 20.4303 17.6037C20.4255 17.5995 20.4206 17.5953 20.4156 17.5911H20.4108C20.356 17.5639 20.2976 17.5448 20.2374 17.5345C20.202 17.5272 20.1661 17.523 20.13 17.5219C20.1243 17.5219 20.1186 17.5219 20.1129 17.5219L20.1081 17.523ZM12.9367 20.6108C12.7714 20.6134 12.6138 20.6819 12.4984 20.8011C12.3831 20.9202 12.3195 21.0805 12.3214 21.2467C12.3214 22.0455 11.6899 22.6825 10.893 22.6825C10.8102 22.6813 10.7279 22.6967 10.6511 22.7277C10.5742 22.7588 10.5042 22.8049 10.4452 22.8634C10.3863 22.9218 10.3394 22.9915 10.3074 23.0683C10.2755 23.1451 10.259 23.2276 10.259 23.3108C10.259 23.3941 10.2755 23.4766 10.3074 23.5534C10.3394 23.6302 10.3863 23.6999 10.4452 23.7583C10.5042 23.8168 10.5742 23.8629 10.6511 23.894C10.7279 23.925 10.8102 23.9404 10.893 23.9392C12.3647 23.9392 13.5716 22.7255 13.5716 21.2467C13.5726 21.1628 13.5568 21.0793 13.5252 21.0016C13.4936 20.9238 13.4469 20.8533 13.3877 20.794C13.3285 20.7347 13.2581 20.688 13.1807 20.6566C13.1032 20.6251 13.0203 20.6095 12.9367 20.6108ZM17.0022 20.6108C16.8442 20.6239 16.697 20.6968 16.5905 20.8149C16.484 20.9329 16.426 21.0874 16.4284 21.2467C16.4284 22.7255 17.6353 23.9392 19.107 23.9392C19.1898 23.9404 19.2721 23.925 19.3489 23.894C19.4258 23.8629 19.4958 23.8168 19.5548 23.7583C19.6137 23.6999 19.6606 23.6302 19.6926 23.5534C19.7245 23.4766 19.741 23.3941 19.741 23.3108C19.741 23.2276 19.7245 23.1451 19.6926 23.0683C19.6606 22.9915 19.6137 22.9218 19.5548 22.8634C19.4958 22.8049 19.4258 22.7588 19.3489 22.7277C19.2721 22.6967 19.1898 22.6813 19.107 22.6825C18.3101 22.6825 17.6786 22.0455 17.6786 21.2467C17.6805 21.0805 17.6169 20.9202 17.5016 20.8011C17.3862 20.6819 17.2286 20.6134 17.0633 20.6108C17.0429 20.6098 17.0226 20.6098 17.0022 20.6108Z" fill="#5F5555"/>
</svg>
