<svg width="23" height="29" viewBox="0 0 23 29" fill="none" xmlns="http://www.w3.org/2000/svg">
<path d="M11.0959 0V1.0036H11.9334L12.8449 1.0805L12.9987 1.1081L13.1682 0.112388L12.989 0.0828116H12.9461L11.9957 0H11.0959ZM8.99433 0.272096L8.12177 0.483071L8.10229 0.492929L8.08282 0.502788L7.21611 0.808403L7.19663 0.818262L7.1791 0.82812L7.0155 0.901074L7.42061 1.82384L7.56279 1.76074L8.39834 1.46498H8.41197L9.24168 1.25007L8.99433 0.272096ZM15.186 0.601373L14.8549 1.55766L15.4197 1.75877L16.2007 2.10974L16.2104 2.11959L16.6019 2.33648L17.083 1.45315L16.6818 1.22838L16.6623 1.21852L16.6448 1.20669L15.8073 0.82812L15.7897 0.818262L15.7703 0.808403L15.186 0.601373ZM5.18274 1.86721L4.7192 2.17677L4.70167 2.18861L4.68609 2.20043L3.97324 2.76632L3.95571 2.77815L3.94013 2.79392L3.54865 3.16066L4.22644 3.90203L4.58676 3.56092L4.59844 3.55106L5.28792 3.00687L5.2996 2.99701L5.73004 2.71111L5.18274 1.86721ZM11.4795 2.50802C6.71875 2.50802 2.8358 6.32457 2.8358 11.0357C2.8358 13.6156 4.15373 15.3473 5.36582 17.1382C6.52877 18.8563 7.61957 20.6547 7.70692 23.5167C7.66045 23.6002 7.62706 23.692 7.62706 23.7927V27.539C7.62706 28.3437 8.28885 29 9.08392 29H13.8752C14.6702 29 15.332 28.3437 15.332 27.539V23.7927C15.332 23.692 15.2987 23.6002 15.2522 23.5167C15.3395 20.6547 16.4303 18.8563 17.5933 17.1382C18.8054 15.3473 20.1233 13.6156 20.1233 11.0357C20.1233 6.32457 16.2404 2.50802 11.4795 2.50802ZM18.8028 2.61844L18.1854 3.41304L18.384 3.57472L18.3977 3.58458L19.0112 4.16624L19.5507 4.76367L20.2888 4.0854L19.7377 3.47219L19.724 3.45445L19.7084 3.44064L19.0462 2.81561L19.0307 2.80181L19.0151 2.78998L18.8028 2.61844ZM11.4795 3.51754C15.716 3.51754 19.1261 6.88536 19.1261 11.0357C19.1261 13.2698 18.001 14.7488 16.7694 16.5683C15.6333 18.247 14.5255 20.2875 14.3504 23.2051H11.9587V17.6863C11.9626 17.416 11.7422 17.1951 11.4718 17.1993C11.2071 17.1993 10.9963 17.4219 11.0004 17.6863V23.2051H8.60869C8.43355 20.2875 7.32585 18.247 6.18969 16.5683C4.95813 14.7488 3.83301 13.2698 3.83301 11.0357C3.83301 6.88536 7.24309 3.51754 11.4795 3.51754ZM2.1697 4.72818L2.05089 4.88394L2.03726 4.90169L2.02557 4.91943L1.52892 5.69826L1.51723 5.716L1.50749 5.73375L1.09264 6.52441L1.97299 6.99762L2.382 6.22077L2.38784 6.20893L2.85138 5.48531L2.95851 5.34532L2.1697 4.72818ZM11.4795 4.74198V4.74592C8.05519 4.74592 5.26523 7.5204 5.25091 10.9411C5.24984 11.0046 5.26144 11.0677 5.28503 11.1267C5.30863 11.1857 5.34375 11.2395 5.38835 11.2848C5.43294 11.3301 5.48612 11.3661 5.54479 11.3906C5.60345 11.4152 5.66643 11.4278 5.73004 11.4278C5.79365 11.4278 5.85662 11.4152 5.91528 11.3906C5.97395 11.3661 6.02713 11.3301 6.07173 11.2848C6.11632 11.2395 6.15144 11.1857 6.17504 11.1267C6.19864 11.0677 6.21024 11.0046 6.20916 10.9411C6.22134 8.03616 8.57168 5.69826 11.4795 5.69826C11.5444 5.70142 11.6092 5.6914 11.67 5.66879C11.7308 5.64619 11.7864 5.61148 11.8334 5.56677C11.8804 5.52206 11.9178 5.46828 11.9434 5.40869C11.9689 5.3491 11.9821 5.28495 11.9821 5.22012C11.9821 5.15529 11.9689 5.09113 11.9434 5.03154C11.9178 4.97196 11.8804 4.91817 11.8334 4.87346C11.7864 4.82875 11.7308 4.79404 11.67 4.77144C11.6092 4.74884 11.5444 4.73882 11.4795 4.74198V4.74198ZM21.5061 5.83234L20.6258 6.30949L20.992 7.00551L20.9958 7.01734L21.3503 7.8632H21.3523L21.4165 8.06235L22.3631 7.74884L22.2852 7.50829L22.2794 7.48858L22.2716 7.46492L21.9093 6.60722L21.9015 6.5875L21.8918 6.56779L21.5061 5.83234ZM0.352528 8.53556L0.155813 9.38537L0.151917 9.40706L0.148022 9.42875L0.0155813 10.3614L0.0136337 10.3831L0.0116851 10.4047L0 10.6078L0.997205 10.665L1.005 10.4836L1.13159 9.59634L1.32247 8.76428L0.352527 8.53556H0.352528ZM22.8617 9.79154L21.8742 9.93548L21.9502 10.4659L22.0008 11.3571V11.3669L21.9872 11.8599L22.9825 11.8914L22.9981 11.3926L23 11.3689L22.9981 11.3472L22.9474 10.4067L22.9455 10.385L22.9416 10.3633L22.8617 9.79154ZM1.02253 12.5934L0.0331101 12.7097L0.0954357 13.2539L0.0973829 13.2756L0.101278 13.2973L0.280464 14.1924L0.284359 14.2121L0.290203 14.2338L0.444068 14.7682L1.40037 14.4862L1.2543 13.9736L1.08095 13.106L1.07901 13.0961L1.02253 12.5934ZM21.7457 13.7724L21.7009 13.9972L21.4574 14.8352L21.1595 15.612L22.0885 15.9768L22.3923 15.1842L22.4001 15.1645L22.406 15.1428L22.6611 14.2654L22.6669 14.2437L22.6708 14.224L22.7215 13.9736L21.7457 13.7724ZM2.11517 16.2785L1.21729 16.7162L1.28546 16.8582L1.29325 16.8779L1.30494 16.8937L1.76264 17.6804L1.77238 17.7001L1.78601 17.7178L2.30799 18.4671L2.31967 18.4829L2.3333 18.5006L2.35278 18.5243L2.99746 17.9742L3.12211 17.8854L3.11432 17.8736L3.10458 17.8618L2.62156 17.1717L2.61377 17.1598L2.1736 16.4007L2.11517 16.2785ZM20.2655 17.2683L19.8311 17.8874L19.2663 18.5637L19.2566 18.5755L19.0618 18.7707L19.7669 19.4845L19.9909 19.2578L20.0045 19.2439L20.0181 19.2262L20.6044 18.5243L20.618 18.5085L20.6297 18.4908L21.0777 17.8559L20.2655 17.2683ZM4.4212 19.2814L3.77653 20.0524L4.33356 20.5315L4.35109 20.5453L4.36862 20.5571L5.1321 21.1072L5.14963 21.1191L5.16716 21.1309L5.44762 21.2965L5.95402 20.427L5.69693 20.2752L4.9646 19.7487L4.4212 19.2814ZM17.6108 20.0188L17.2816 20.2633L17.268 20.2732L16.4792 20.7444H16.4714L15.9631 20.9889L16.3935 21.8999L16.9408 21.6337L16.9603 21.6238L16.9778 21.61L17.788 21.1269L17.8056 21.1171L17.8231 21.1033L18.1893 20.841L17.6108 20.0188ZM8.62427 24.3783H14.3348V27.539C14.3348 27.7946 14.1419 27.9905 13.8752 27.9905H9.08392C8.81718 27.9905 8.62427 27.7946 8.62427 27.539V27.2373H13.3961V26.281H8.62427V25.7033H13.3961V24.745H8.62427V24.3783Z" fill="#5F5555"/>
</svg>
