<svg width="40" height="40" viewBox="0 0 40 40" fill="none" xmlns="http://www.w3.org/2000/svg">
<path d="M14.1687 18.9567C15.0099 18.9567 15.6918 19.6338 15.6918 20.469V22.4561H17.7108C18.2909 22.3937 18.8559 22.6659 19.1657 23.1569C19.4754 23.6479 19.4754 24.2714 19.1657 24.7624C18.8559 25.2534 18.2909 25.5255 17.7108 25.4632H15.6918V27.4679C15.6822 28.2991 15.0059 28.9707 14.1687 28.9802C13.3167 28.9705 12.6455 28.2963 12.6455 27.4679V25.4632H10.6265C10.0464 25.5255 9.48137 25.2534 9.17165 24.7624C8.86192 24.2714 8.86192 23.6479 9.17165 23.1569C9.48137 22.6659 10.0464 22.3937 10.6265 22.4561H12.6455V20.469L12.6594 20.2638C12.7603 19.5256 13.3975 18.9567 14.1687 18.9567ZM28.3373 26.3776C28.7691 25.9482 29.4176 25.8167 29.9844 26.0435C30.1665 26.128 30.3339 26.2408 30.4803 26.3776C31.0625 26.9633 31.0583 27.9061 30.4709 28.4868C29.8836 29.0674 28.934 29.0674 28.3467 28.4868C27.7593 27.9061 27.7551 26.9633 28.3373 26.3776ZM25.4327 19.3436C25.7958 19.195 26.2032 19.195 26.5662 19.3436C26.7557 19.4244 26.9295 19.5375 27.0798 19.6777C27.3608 19.9583 27.5197 20.3371 27.5226 20.7328C27.525 20.9312 27.4889 21.1282 27.4163 21.3131C27.3464 21.5021 27.2309 21.6711 27.0798 21.8055C26.4847 22.3682 25.5496 22.3682 24.9545 21.8055C24.6587 21.5296 24.4909 21.1446 24.4909 20.7416C24.4909 20.3386 24.6587 19.9536 24.9545 19.6777C25.0877 19.5333 25.2509 19.4193 25.4327 19.3436ZM39.9906 19.0349C39.7226 12.8759 34.5066 8.16123 28.2207 8.20523C27.4507 8.21723 26.8347 8.84733 26.8447 9.61944C26.8547 10.3876 27.4827 11.0197 28.2567 10.9957C33.1506 10.8976 36.9946 14.4382 37.2006 19.1529C37.2106 19.3369 37.2126 19.5229 37.2066 19.743V28.4223C37.2586 30.7046 36.4166 32.8669 34.8406 34.5132C33.2646 36.1634 31.1406 37.0976 28.8567 37.1476C28.6707 37.1516 28.4827 37.1476 28.2147 37.1396C22.6647 37.2336 17.1387 37.2336 11.7027 37.1416C6.95671 37.3456 3.00472 33.6871 2.79872 28.9864C2.79072 28.7983 2.78872 28.6103 2.79272 28.3923V19.711C2.69072 15.0023 6.43671 11.0897 11.1487 10.9896C11.3327 10.9836 11.5207 10.9896 11.7647 10.9957H21.1387C21.9087 10.9957 22.5347 10.3716 22.5347 9.59944V7.72916C22.4947 4.83273 20.1207 2.49437 17.2427 2.49437H17.2027H15.2227H15.2107C14.9167 2.49437 14.6387 2.38036 14.4267 2.17233C14.2107 1.96429 14.0907 1.68225 14.0887 1.38221C14.0807 0.616092 13.4567 0 12.6947 0H12.6787C11.9087 0.0080012 11.2907 0.640096 11.2987 1.41021C11.3107 2.45437 11.7267 3.43452 12.4727 4.16463C13.2207 4.90074 14.2047 5.24279 15.2387 5.28679H17.2127H17.2327C18.6007 5.28679 19.7267 6.39496 19.7427 7.74516V8.20523L11.8247 8.20723C11.5747 8.19723 11.3267 8.19323 11.0827 8.19723C4.83871 8.33325 -0.133275 13.526 0.00272485 19.743V28.3643C-0.00127514 28.6103 0.000724858 28.8563 0.0107248 29.1044C0.284724 35.3453 5.57071 40.236 11.7407 39.93C14.4227 39.978 17.1527 40 19.8947 40C22.6527 40 25.4227 39.978 28.1787 39.928C28.4287 39.938 28.6767 39.942 28.9227 39.936C31.9466 39.87 34.7646 38.6318 36.8566 36.4435C38.9486 34.2571 40.0646 31.3867 39.9966 28.3923V19.777C40.0026 19.5309 40.0006 19.2829 39.9906 19.0349Z" fill="#0274D9"/>
</svg>
