<svg width="31" height="31" viewBox="0 0 31 31" fill="none" xmlns="http://www.w3.org/2000/svg">
<path d="M26.1924 5.28822L26.1924 5.28821C25.7266 4.83076 24.9676 4.83077 24.5018 5.28821L26.1924 5.28822ZM26.1924 5.28822C28.972 8.01803 30.5 11.6432 30.5 15.5C30.5 19.3568 28.972 22.9821 26.1924 25.712L26.1923 25.712M26.1924 5.28822L26.1923 25.712M26.1923 25.712C25.9603 25.9399 25.6555 26.0552 25.3471 26.0552C25.0387 26.0552 24.7339 25.9399 24.5017 25.712M26.1923 25.712L24.5017 25.712M24.5017 25.712C24.041 25.2595 24.041 24.5296 24.5018 24.077M24.5017 25.712L24.5018 24.077M24.5018 24.077C29.3163 19.3485 29.3163 11.6519 24.5018 6.92335M24.5018 24.077L24.5018 6.92335M24.5018 6.92335C24.041 6.47073 24.041 5.74076 24.5018 5.28823L24.5018 6.92335ZM18.4951 22.5805C18.7273 22.8085 19.0321 22.9237 19.3405 22.9237C19.6489 22.9237 19.9538 22.8085 20.1858 22.5807C24.1617 18.6758 24.1617 12.3247 20.1858 8.41971L18.4951 22.5805ZM18.4951 22.5805C18.0343 22.1279 18.0344 21.3981 18.4952 20.9455M18.4951 22.5805L18.4952 20.9455M18.4952 20.9455C21.5516 17.9437 21.5516 13.0566 18.4952 10.0548M18.4952 20.9455L18.4952 10.0548M18.4952 10.0548C18.0343 9.6022 18.0343 8.87223 18.4951 8.41971M18.4952 10.0548L18.4951 8.41971M18.4951 8.41971C18.961 7.96221 19.7199 7.96221 20.1858 8.41969L18.4951 8.41971Z" fill="white" stroke="#5F5555"/>
<path d="M14.383 30.1407L14.3829 30.1406L5.69499 21.6078L5.47617 21.3929H5.16946H1.12727C0.90612 21.3929 0.75 21.2203 0.75 21.0357V9.96433C0.75 9.77981 0.906151 9.60719 1.12727 9.60719H5.16946H5.47617L5.69499 9.39227L14.3829 0.859403C14.4902 0.754086 14.6568 0.719452 14.8033 0.779042C14.9478 0.837846 15.0318 0.970752 15.0318 1.10721V29.8929C15.0318 30.0294 14.9477 30.1623 14.8034 30.221L14.8032 30.221C14.7555 30.2405 14.7051 30.25 14.6547 30.25C14.5517 30.25 14.454 30.2104 14.383 30.1407Z" fill="white" stroke="#5F5555" stroke-width="1.5"/>
</svg>
