<svg width="33" height="33" viewBox="0 0 33 33" fill="none" xmlns="http://www.w3.org/2000/svg">
<path d="M26.3471 27.5552C25.9143 27.5552 25.4817 27.3931 25.1514 27.0689C24.4911 26.4204 24.4911 25.3689 25.1514 24.7203C29.7664 20.1877 29.7664 12.8126 25.1514 8.28007C24.4911 7.63149 24.4911 6.57998 25.1514 5.93148C25.8117 5.28304 26.8824 5.28297 27.5427 5.93148C30.417 8.75434 32 12.5077 32 16.5C32 20.4924 30.417 24.2457 27.5427 27.0687C27.2125 27.393 26.7798 27.5552 26.3471 27.5552ZM20.3405 24.4237C19.9077 24.4237 19.4751 24.2616 19.1448 23.9373C18.4844 23.2887 18.4844 22.2374 19.1448 21.5888C22.0017 18.7829 22.0017 14.2174 19.1448 11.4115C18.4844 10.763 18.4844 9.71146 19.1448 9.06295C19.8052 8.41445 20.8757 8.41445 21.5361 9.06295C25.7116 13.1639 25.7116 19.8365 21.5361 23.9375C21.2059 24.2616 20.7732 24.4237 20.3405 24.4237ZM15.6548 32C15.3614 32 15.0731 31.8876 14.8574 31.6757L6.16946 23.1429H2.12727C1.50474 23.1429 1 22.6472 1 22.0357V10.9643C1 10.3529 1.50474 9.85719 2.12727 9.85719H6.16946L14.8574 1.32432C15.1799 1.00761 15.6647 0.912947 16.0859 1.08435C16.5072 1.25575 16.7818 1.65944 16.7818 2.10721V30.8929C16.7818 31.3407 16.5072 31.7444 16.0859 31.9157C15.9465 31.9725 15.8 32 15.6548 32Z" fill="white" stroke="#5F5555" stroke-width="1.5"/>
</svg>
