<svg width="30" height="30" viewBox="0 0 30 30" fill="none" xmlns="http://www.w3.org/2000/svg">
<path d="M22.4661 10.1146C24.6516 10.1146 26.4234 8.34284 26.4234 6.15729C26.4234 3.97174 24.6516 2.2 22.4661 2.2C20.2805 2.2 18.5088 3.97174 18.5088 6.15729C18.5088 8.34284 20.2805 10.1146 22.4661 10.1146Z" stroke="#5F5555" stroke-width="1.5"/>
<path d="M22.4661 27.7985C24.6516 27.7985 26.4234 26.0268 26.4234 23.8412C26.4234 21.6557 24.6516 19.884 22.4661 19.884C20.2805 19.884 18.5088 21.6557 18.5088 23.8412C18.5088 26.0268 20.2805 27.7985 22.4661 27.7985Z" stroke="#5F5555" stroke-width="1.5"/>
<path d="M7.53249 18.956C9.71804 18.956 11.4898 17.1842 11.4898 14.9987C11.4898 12.8131 9.71804 11.0414 7.53249 11.0414C5.34694 11.0414 3.5752 12.8131 3.5752 14.9987C3.5752 17.1842 5.34694 18.956 7.53249 18.956Z" stroke="#5F5555" stroke-width="1.5"/>
<path fill-rule="evenodd" clip-rule="evenodd" d="M18.5926 7.71604L10.6768 11.9476L18.5913 7.71604H18.5926ZM18.5926 21.9454L10.6768 17.7126L18.5913 21.9454H18.5926Z" stroke="#5F5555" stroke-width="1.5"/>
</svg>
