<svg width="30" height="30" viewBox="0 0 30 30" fill="none" xmlns="http://www.w3.org/2000/svg">
<g clip-path="url(#clip0_106_3874)">
<mask id="path-1-outside-1_106_3874" maskUnits="userSpaceOnUse" x="2.5" y="-0.5" width="25" height="31" fill="black">
<rect fill="white" x="2.5" y="-0.5" width="25" height="31"/>
<path d="M14.5959 0.5V1.5036H15.4334L16.3449 1.5805L16.4987 1.6081L16.6682 0.612388L16.489 0.582812H16.4461L15.4957 0.5H14.5959ZM12.4943 0.772096L11.6218 0.983071L11.6023 0.992929L11.5828 1.00279L10.7161 1.3084L10.6966 1.31826L10.6791 1.32812L10.5155 1.40107L10.9206 2.32384L11.0628 2.26074L11.8983 1.96498H11.912L12.7417 1.75007L12.4943 0.772096ZM18.686 1.10137L18.3549 2.05766L18.9197 2.25877L19.7007 2.60974L19.7104 2.61959L20.1019 2.83648L20.583 1.95315L20.1818 1.72838L20.1623 1.71852L20.1448 1.70669L19.3073 1.32812L19.2897 1.31826L19.2703 1.3084L18.686 1.10137ZM8.68274 2.36721L8.2192 2.67677L8.20167 2.68861L8.18609 2.70043L7.47324 3.26632L7.45571 3.27815L7.44013 3.29392L7.04865 3.66066L7.72644 4.40203L8.08676 4.06092L8.09844 4.05106L8.78792 3.50687L8.7996 3.49701L9.23004 3.21111L8.68274 2.36721ZM14.9795 3.00802C10.2188 3.00802 6.3358 6.82457 6.3358 11.5357C6.3358 14.1156 7.65373 15.8473 8.86582 17.6382C10.0288 19.3563 11.1196 21.1547 11.2069 24.0167C11.1605 24.1002 11.1271 24.192 11.1271 24.2927V28.039C11.1271 28.8437 11.7888 29.5 12.5839 29.5H17.3752C18.1702 29.5 18.832 28.8437 18.832 28.039V24.2927C18.832 24.192 18.7987 24.1002 18.7522 24.0167C18.8395 21.1547 19.9303 19.3563 21.0933 17.6382C22.3054 15.8473 23.6233 14.1156 23.6233 11.5357C23.6233 6.82457 19.7404 3.00802 14.9795 3.00802ZM22.3028 3.11844L21.6854 3.91304L21.884 4.07472L21.8977 4.08458L22.5112 4.66624L23.0507 5.26367L23.7888 4.5854L23.2377 3.97219L23.224 3.95445L23.2084 3.94064L22.5462 3.31561L22.5307 3.30181L22.5151 3.28998L22.3028 3.11844ZM14.9795 4.01754C19.216 4.01754 22.6261 7.38536 22.6261 11.5357C22.6261 13.7698 21.501 15.2488 20.2694 17.0683C19.1333 18.747 18.0255 20.7875 17.8504 23.7051H15.4587V18.1863C15.4626 17.916 15.2422 17.6951 14.9718 17.6993C14.7071 17.6993 14.4963 17.9219 14.5004 18.1863V23.7051H12.1087C11.9336 20.7875 10.8259 18.747 9.68969 17.0683C8.45813 15.2488 7.33301 13.7698 7.33301 11.5357C7.33301 7.38536 10.7431 4.01754 14.9795 4.01754ZM5.6697 5.22818L5.55089 5.38394L5.53726 5.40169L5.52557 5.41943L5.02892 6.19826L5.01723 6.216L5.00749 6.23375L4.59264 7.02441L5.47299 7.49762L5.882 6.72077L5.88784 6.70893L6.35138 5.98531L6.45851 5.84532L5.6697 5.22818ZM14.9795 5.24198V5.24592C11.5552 5.24592 8.76523 8.0204 8.75091 11.4411C8.74984 11.5046 8.76144 11.5677 8.78503 11.6267C8.80863 11.6857 8.84375 11.7395 8.88835 11.7848C8.93294 11.8301 8.98612 11.8661 9.04479 11.8906C9.10345 11.9152 9.16643 11.9278 9.23004 11.9278C9.29365 11.9278 9.35662 11.9152 9.41528 11.8906C9.47395 11.8661 9.52713 11.8301 9.57173 11.7848C9.61632 11.7395 9.65144 11.6857 9.67504 11.6267C9.69864 11.5677 9.71024 11.5046 9.70916 11.4411C9.72134 8.53616 12.0717 6.19826 14.9795 6.19826C15.0444 6.20142 15.1092 6.1914 15.17 6.16879C15.2308 6.14619 15.2864 6.11148 15.3334 6.06677C15.3804 6.02206 15.4178 5.96828 15.4434 5.90869C15.4689 5.8491 15.4821 5.78495 15.4821 5.72012C15.4821 5.65529 15.4689 5.59113 15.4434 5.53154C15.4178 5.47196 15.3804 5.41817 15.3334 5.37346C15.2864 5.32875 15.2308 5.29404 15.17 5.27144C15.1092 5.24884 15.0444 5.23882 14.9795 5.24198ZM25.0061 6.33234L24.1258 6.80949L24.492 7.50551L24.4958 7.51734L24.8503 8.3632H24.8523L24.9165 8.56235L25.8631 8.24884L25.7852 8.00829L25.7794 7.98858L25.7716 7.96492L25.4093 7.10722L25.4015 7.0875L25.3918 7.06779L25.0061 6.33234ZM3.85253 9.03556L3.65581 9.88537L3.65192 9.90706L3.64802 9.92875L3.51558 10.8614L3.51363 10.8831L3.51169 10.9047L3.5 11.1078L4.49721 11.165L4.505 10.9836L4.63159 10.0963L4.82247 9.26428L3.85253 9.03556H3.85253ZM26.3617 10.2915L25.3742 10.4355L25.4502 10.9659L25.5008 11.8571V11.8669L25.4872 12.3599L26.4825 12.3914L26.4981 11.8926L26.5 11.8689L26.4981 11.8472L26.4474 10.9067L26.4455 10.885L26.4416 10.8633L26.3617 10.2915ZM4.52253 13.0934L3.53311 13.2097L3.59544 13.7539L3.59738 13.7756L3.60128 13.7973L3.78046 14.6924L3.78436 14.7121L3.7902 14.7338L3.94407 15.2682L4.90037 14.9862L4.7543 14.4736L4.58095 13.606L4.57901 13.5961L4.52253 13.0934ZM25.2457 14.2724L25.2009 14.4972L24.9574 15.3352L24.6595 16.112L25.5885 16.4768L25.8923 15.6842L25.9001 15.6645L25.906 15.6428L26.1611 14.7654L26.1669 14.7437L26.1708 14.724L26.2215 14.4736L25.2457 14.2724ZM5.61517 16.7785L4.71729 17.2162L4.78546 17.3582L4.79325 17.3779L4.80494 17.3937L5.26264 18.1804L5.27238 18.2001L5.28601 18.2178L5.80799 18.9671L5.81967 18.9829L5.8333 19.0006L5.85278 19.0243L6.49746 18.4742L6.62211 18.3854L6.61432 18.3736L6.60458 18.3618L6.12156 17.6717L6.11377 17.6598L5.6736 16.9007L5.61517 16.7785ZM23.7655 17.7683L23.3311 18.3874L22.7663 19.0637L22.7566 19.0755L22.5618 19.2707L23.2669 19.9845L23.4909 19.7578L23.5045 19.7439L23.5181 19.7262L24.1044 19.0243L24.118 19.0085L24.1297 18.9908L24.5777 18.3559L23.7655 17.7683ZM7.9212 19.7814L7.27653 20.5524L7.83356 21.0315L7.85109 21.0453L7.86862 21.0571L8.6321 21.6072L8.64963 21.6191L8.66716 21.6309L8.94762 21.7965L9.45402 20.927L9.19693 20.7752L8.4646 20.2487L7.9212 19.7814ZM21.1108 20.5188L20.7816 20.7633L20.768 20.7732L19.9792 21.2444H19.9714L19.4631 21.4889L19.8935 22.3999L20.4408 22.1337L20.4603 22.1238L20.4778 22.11L21.288 21.6269L21.3056 21.6171L21.3231 21.6033L21.6893 21.341L21.1108 20.5188ZM12.1243 24.8783H17.8348V28.039C17.8348 28.2946 17.6419 28.4905 17.3752 28.4905H12.5839C12.3172 28.4905 12.1243 28.2946 12.1243 28.039V27.7373H16.8961V26.781H12.1243V26.2033H16.8961V25.245H12.1243V24.8783Z"/>
</mask>
<path d="M14.5959 0.5V1.5036H15.4334L16.3449 1.5805L16.4987 1.6081L16.6682 0.612388L16.489 0.582812H16.4461L15.4957 0.5H14.5959ZM12.4943 0.772096L11.6218 0.983071L11.6023 0.992929L11.5828 1.00279L10.7161 1.3084L10.6966 1.31826L10.6791 1.32812L10.5155 1.40107L10.9206 2.32384L11.0628 2.26074L11.8983 1.96498H11.912L12.7417 1.75007L12.4943 0.772096ZM18.686 1.10137L18.3549 2.05766L18.9197 2.25877L19.7007 2.60974L19.7104 2.61959L20.1019 2.83648L20.583 1.95315L20.1818 1.72838L20.1623 1.71852L20.1448 1.70669L19.3073 1.32812L19.2897 1.31826L19.2703 1.3084L18.686 1.10137ZM8.68274 2.36721L8.2192 2.67677L8.20167 2.68861L8.18609 2.70043L7.47324 3.26632L7.45571 3.27815L7.44013 3.29392L7.04865 3.66066L7.72644 4.40203L8.08676 4.06092L8.09844 4.05106L8.78792 3.50687L8.7996 3.49701L9.23004 3.21111L8.68274 2.36721ZM14.9795 3.00802C10.2188 3.00802 6.3358 6.82457 6.3358 11.5357C6.3358 14.1156 7.65373 15.8473 8.86582 17.6382C10.0288 19.3563 11.1196 21.1547 11.2069 24.0167C11.1605 24.1002 11.1271 24.192 11.1271 24.2927V28.039C11.1271 28.8437 11.7888 29.5 12.5839 29.5H17.3752C18.1702 29.5 18.832 28.8437 18.832 28.039V24.2927C18.832 24.192 18.7987 24.1002 18.7522 24.0167C18.8395 21.1547 19.9303 19.3563 21.0933 17.6382C22.3054 15.8473 23.6233 14.1156 23.6233 11.5357C23.6233 6.82457 19.7404 3.00802 14.9795 3.00802ZM22.3028 3.11844L21.6854 3.91304L21.884 4.07472L21.8977 4.08458L22.5112 4.66624L23.0507 5.26367L23.7888 4.5854L23.2377 3.97219L23.224 3.95445L23.2084 3.94064L22.5462 3.31561L22.5307 3.30181L22.5151 3.28998L22.3028 3.11844ZM14.9795 4.01754C19.216 4.01754 22.6261 7.38536 22.6261 11.5357C22.6261 13.7698 21.501 15.2488 20.2694 17.0683C19.1333 18.747 18.0255 20.7875 17.8504 23.7051H15.4587V18.1863C15.4626 17.916 15.2422 17.6951 14.9718 17.6993C14.7071 17.6993 14.4963 17.9219 14.5004 18.1863V23.7051H12.1087C11.9336 20.7875 10.8259 18.747 9.68969 17.0683C8.45813 15.2488 7.33301 13.7698 7.33301 11.5357C7.33301 7.38536 10.7431 4.01754 14.9795 4.01754ZM5.6697 5.22818L5.55089 5.38394L5.53726 5.40169L5.52557 5.41943L5.02892 6.19826L5.01723 6.216L5.00749 6.23375L4.59264 7.02441L5.47299 7.49762L5.882 6.72077L5.88784 6.70893L6.35138 5.98531L6.45851 5.84532L5.6697 5.22818ZM14.9795 5.24198V5.24592C11.5552 5.24592 8.76523 8.0204 8.75091 11.4411C8.74984 11.5046 8.76144 11.5677 8.78503 11.6267C8.80863 11.6857 8.84375 11.7395 8.88835 11.7848C8.93294 11.8301 8.98612 11.8661 9.04479 11.8906C9.10345 11.9152 9.16643 11.9278 9.23004 11.9278C9.29365 11.9278 9.35662 11.9152 9.41528 11.8906C9.47395 11.8661 9.52713 11.8301 9.57173 11.7848C9.61632 11.7395 9.65144 11.6857 9.67504 11.6267C9.69864 11.5677 9.71024 11.5046 9.70916 11.4411C9.72134 8.53616 12.0717 6.19826 14.9795 6.19826C15.0444 6.20142 15.1092 6.1914 15.17 6.16879C15.2308 6.14619 15.2864 6.11148 15.3334 6.06677C15.3804 6.02206 15.4178 5.96828 15.4434 5.90869C15.4689 5.8491 15.4821 5.78495 15.4821 5.72012C15.4821 5.65529 15.4689 5.59113 15.4434 5.53154C15.4178 5.47196 15.3804 5.41817 15.3334 5.37346C15.2864 5.32875 15.2308 5.29404 15.17 5.27144C15.1092 5.24884 15.0444 5.23882 14.9795 5.24198ZM25.0061 6.33234L24.1258 6.80949L24.492 7.50551L24.4958 7.51734L24.8503 8.3632H24.8523L24.9165 8.56235L25.8631 8.24884L25.7852 8.00829L25.7794 7.98858L25.7716 7.96492L25.4093 7.10722L25.4015 7.0875L25.3918 7.06779L25.0061 6.33234ZM3.85253 9.03556L3.65581 9.88537L3.65192 9.90706L3.64802 9.92875L3.51558 10.8614L3.51363 10.8831L3.51169 10.9047L3.5 11.1078L4.49721 11.165L4.505 10.9836L4.63159 10.0963L4.82247 9.26428L3.85253 9.03556H3.85253ZM26.3617 10.2915L25.3742 10.4355L25.4502 10.9659L25.5008 11.8571V11.8669L25.4872 12.3599L26.4825 12.3914L26.4981 11.8926L26.5 11.8689L26.4981 11.8472L26.4474 10.9067L26.4455 10.885L26.4416 10.8633L26.3617 10.2915ZM4.52253 13.0934L3.53311 13.2097L3.59544 13.7539L3.59738 13.7756L3.60128 13.7973L3.78046 14.6924L3.78436 14.7121L3.7902 14.7338L3.94407 15.2682L4.90037 14.9862L4.7543 14.4736L4.58095 13.606L4.57901 13.5961L4.52253 13.0934ZM25.2457 14.2724L25.2009 14.4972L24.9574 15.3352L24.6595 16.112L25.5885 16.4768L25.8923 15.6842L25.9001 15.6645L25.906 15.6428L26.1611 14.7654L26.1669 14.7437L26.1708 14.724L26.2215 14.4736L25.2457 14.2724ZM5.61517 16.7785L4.71729 17.2162L4.78546 17.3582L4.79325 17.3779L4.80494 17.3937L5.26264 18.1804L5.27238 18.2001L5.28601 18.2178L5.80799 18.9671L5.81967 18.9829L5.8333 19.0006L5.85278 19.0243L6.49746 18.4742L6.62211 18.3854L6.61432 18.3736L6.60458 18.3618L6.12156 17.6717L6.11377 17.6598L5.6736 16.9007L5.61517 16.7785ZM23.7655 17.7683L23.3311 18.3874L22.7663 19.0637L22.7566 19.0755L22.5618 19.2707L23.2669 19.9845L23.4909 19.7578L23.5045 19.7439L23.5181 19.7262L24.1044 19.0243L24.118 19.0085L24.1297 18.9908L24.5777 18.3559L23.7655 17.7683ZM7.9212 19.7814L7.27653 20.5524L7.83356 21.0315L7.85109 21.0453L7.86862 21.0571L8.6321 21.6072L8.64963 21.6191L8.66716 21.6309L8.94762 21.7965L9.45402 20.927L9.19693 20.7752L8.4646 20.2487L7.9212 19.7814ZM21.1108 20.5188L20.7816 20.7633L20.768 20.7732L19.9792 21.2444H19.9714L19.4631 21.4889L19.8935 22.3999L20.4408 22.1337L20.4603 22.1238L20.4778 22.11L21.288 21.6269L21.3056 21.6171L21.3231 21.6033L21.6893 21.341L21.1108 20.5188ZM12.1243 24.8783H17.8348V28.039C17.8348 28.2946 17.6419 28.4905 17.3752 28.4905H12.5839C12.3172 28.4905 12.1243 28.2946 12.1243 28.039V27.7373H16.8961V26.781H12.1243V26.2033H16.8961V25.245H12.1243V24.8783Z" fill="#5F5555"/>
<path d="M14.5959 0.5V1.5036H15.4334L16.3449 1.5805L16.4987 1.6081L16.6682 0.612388L16.489 0.582812H16.4461L15.4957 0.5H14.5959ZM12.4943 0.772096L11.6218 0.983071L11.6023 0.992929L11.5828 1.00279L10.7161 1.3084L10.6966 1.31826L10.6791 1.32812L10.5155 1.40107L10.9206 2.32384L11.0628 2.26074L11.8983 1.96498H11.912L12.7417 1.75007L12.4943 0.772096ZM18.686 1.10137L18.3549 2.05766L18.9197 2.25877L19.7007 2.60974L19.7104 2.61959L20.1019 2.83648L20.583 1.95315L20.1818 1.72838L20.1623 1.71852L20.1448 1.70669L19.3073 1.32812L19.2897 1.31826L19.2703 1.3084L18.686 1.10137ZM8.68274 2.36721L8.2192 2.67677L8.20167 2.68861L8.18609 2.70043L7.47324 3.26632L7.45571 3.27815L7.44013 3.29392L7.04865 3.66066L7.72644 4.40203L8.08676 4.06092L8.09844 4.05106L8.78792 3.50687L8.7996 3.49701L9.23004 3.21111L8.68274 2.36721ZM14.9795 3.00802C10.2188 3.00802 6.3358 6.82457 6.3358 11.5357C6.3358 14.1156 7.65373 15.8473 8.86582 17.6382C10.0288 19.3563 11.1196 21.1547 11.2069 24.0167C11.1605 24.1002 11.1271 24.192 11.1271 24.2927V28.039C11.1271 28.8437 11.7888 29.5 12.5839 29.5H17.3752C18.1702 29.5 18.832 28.8437 18.832 28.039V24.2927C18.832 24.192 18.7987 24.1002 18.7522 24.0167C18.8395 21.1547 19.9303 19.3563 21.0933 17.6382C22.3054 15.8473 23.6233 14.1156 23.6233 11.5357C23.6233 6.82457 19.7404 3.00802 14.9795 3.00802ZM22.3028 3.11844L21.6854 3.91304L21.884 4.07472L21.8977 4.08458L22.5112 4.66624L23.0507 5.26367L23.7888 4.5854L23.2377 3.97219L23.224 3.95445L23.2084 3.94064L22.5462 3.31561L22.5307 3.30181L22.5151 3.28998L22.3028 3.11844ZM14.9795 4.01754C19.216 4.01754 22.6261 7.38536 22.6261 11.5357C22.6261 13.7698 21.501 15.2488 20.2694 17.0683C19.1333 18.747 18.0255 20.7875 17.8504 23.7051H15.4587V18.1863C15.4626 17.916 15.2422 17.6951 14.9718 17.6993C14.7071 17.6993 14.4963 17.9219 14.5004 18.1863V23.7051H12.1087C11.9336 20.7875 10.8259 18.747 9.68969 17.0683C8.45813 15.2488 7.33301 13.7698 7.33301 11.5357C7.33301 7.38536 10.7431 4.01754 14.9795 4.01754ZM5.6697 5.22818L5.55089 5.38394L5.53726 5.40169L5.52557 5.41943L5.02892 6.19826L5.01723 6.216L5.00749 6.23375L4.59264 7.02441L5.47299 7.49762L5.882 6.72077L5.88784 6.70893L6.35138 5.98531L6.45851 5.84532L5.6697 5.22818ZM14.9795 5.24198V5.24592C11.5552 5.24592 8.76523 8.0204 8.75091 11.4411C8.74984 11.5046 8.76144 11.5677 8.78503 11.6267C8.80863 11.6857 8.84375 11.7395 8.88835 11.7848C8.93294 11.8301 8.98612 11.8661 9.04479 11.8906C9.10345 11.9152 9.16643 11.9278 9.23004 11.9278C9.29365 11.9278 9.35662 11.9152 9.41528 11.8906C9.47395 11.8661 9.52713 11.8301 9.57173 11.7848C9.61632 11.7395 9.65144 11.6857 9.67504 11.6267C9.69864 11.5677 9.71024 11.5046 9.70916 11.4411C9.72134 8.53616 12.0717 6.19826 14.9795 6.19826C15.0444 6.20142 15.1092 6.1914 15.17 6.16879C15.2308 6.14619 15.2864 6.11148 15.3334 6.06677C15.3804 6.02206 15.4178 5.96828 15.4434 5.90869C15.4689 5.8491 15.4821 5.78495 15.4821 5.72012C15.4821 5.65529 15.4689 5.59113 15.4434 5.53154C15.4178 5.47196 15.3804 5.41817 15.3334 5.37346C15.2864 5.32875 15.2308 5.29404 15.17 5.27144C15.1092 5.24884 15.0444 5.23882 14.9795 5.24198ZM25.0061 6.33234L24.1258 6.80949L24.492 7.50551L24.4958 7.51734L24.8503 8.3632H24.8523L24.9165 8.56235L25.8631 8.24884L25.7852 8.00829L25.7794 7.98858L25.7716 7.96492L25.4093 7.10722L25.4015 7.0875L25.3918 7.06779L25.0061 6.33234ZM3.85253 9.03556L3.65581 9.88537L3.65192 9.90706L3.64802 9.92875L3.51558 10.8614L3.51363 10.8831L3.51169 10.9047L3.5 11.1078L4.49721 11.165L4.505 10.9836L4.63159 10.0963L4.82247 9.26428L3.85253 9.03556H3.85253ZM26.3617 10.2915L25.3742 10.4355L25.4502 10.9659L25.5008 11.8571V11.8669L25.4872 12.3599L26.4825 12.3914L26.4981 11.8926L26.5 11.8689L26.4981 11.8472L26.4474 10.9067L26.4455 10.885L26.4416 10.8633L26.3617 10.2915ZM4.52253 13.0934L3.53311 13.2097L3.59544 13.7539L3.59738 13.7756L3.60128 13.7973L3.78046 14.6924L3.78436 14.7121L3.7902 14.7338L3.94407 15.2682L4.90037 14.9862L4.7543 14.4736L4.58095 13.606L4.57901 13.5961L4.52253 13.0934ZM25.2457 14.2724L25.2009 14.4972L24.9574 15.3352L24.6595 16.112L25.5885 16.4768L25.8923 15.6842L25.9001 15.6645L25.906 15.6428L26.1611 14.7654L26.1669 14.7437L26.1708 14.724L26.2215 14.4736L25.2457 14.2724ZM5.61517 16.7785L4.71729 17.2162L4.78546 17.3582L4.79325 17.3779L4.80494 17.3937L5.26264 18.1804L5.27238 18.2001L5.28601 18.2178L5.80799 18.9671L5.81967 18.9829L5.8333 19.0006L5.85278 19.0243L6.49746 18.4742L6.62211 18.3854L6.61432 18.3736L6.60458 18.3618L6.12156 17.6717L6.11377 17.6598L5.6736 16.9007L5.61517 16.7785ZM23.7655 17.7683L23.3311 18.3874L22.7663 19.0637L22.7566 19.0755L22.5618 19.2707L23.2669 19.9845L23.4909 19.7578L23.5045 19.7439L23.5181 19.7262L24.1044 19.0243L24.118 19.0085L24.1297 18.9908L24.5777 18.3559L23.7655 17.7683ZM7.9212 19.7814L7.27653 20.5524L7.83356 21.0315L7.85109 21.0453L7.86862 21.0571L8.6321 21.6072L8.64963 21.6191L8.66716 21.6309L8.94762 21.7965L9.45402 20.927L9.19693 20.7752L8.4646 20.2487L7.9212 19.7814ZM21.1108 20.5188L20.7816 20.7633L20.768 20.7732L19.9792 21.2444H19.9714L19.4631 21.4889L19.8935 22.3999L20.4408 22.1337L20.4603 22.1238L20.4778 22.11L21.288 21.6269L21.3056 21.6171L21.3231 21.6033L21.6893 21.341L21.1108 20.5188ZM12.1243 24.8783H17.8348V28.039C17.8348 28.2946 17.6419 28.4905 17.3752 28.4905H12.5839C12.3172 28.4905 12.1243 28.2946 12.1243 28.039V27.7373H16.8961V26.781H12.1243V26.2033H16.8961V25.245H12.1243V24.8783Z" stroke="#5F5555" stroke-width="0.5" mask="url(#path-1-outside-1_106_3874)"/>
</g>
<defs>
<clipPath id="clip0_106_3874">
<rect width="23" height="29" fill="white" transform="translate(3.5 0.5)"/>
</clipPath>
</defs>
</svg>
