<svg width="30" height="30" viewBox="0 0 30 30" fill="none" xmlns="http://www.w3.org/2000/svg">
<g clip-path="url(#clip0_106_3874)">
<path d="M3.88986 20.6828C5.94365 20.8708 8.06938 21.3953 10.186 22.2562V24.4703L1.50586 22.9263V4.5668L3.88986 4.99047V20.6828ZM14.9892 24.8589V25.3245L13.2446 25.0141V23.7431C13.8297 24.075 14.4103 24.4335 14.9858 24.8181V24.8634C14.9869 24.8617 14.988 24.8606 14.9892 24.8589V24.8589Z" stroke="#5F5555" stroke-width="1.5" stroke-miterlimit="10" stroke-linecap="round" stroke-linejoin="round"/>
<path d="M15.0543 7.44895V24.8636L15.0216 24.8578L15.0028 24.8546L14.993 24.8529L14.9889 24.8521L14.9856 24.8513V7.53069C14.9864 7.52904 14.988 7.5274 14.9889 7.52576V7.43751L14.9938 7.43831L15.0028 7.43995L15.0216 7.44323L15.0437 7.44731L15.0543 7.44895ZM5.5883 18.8538C6.93408 18.8249 8.55627 19.2843 10.1858 20.2319V22.2562C8.06916 21.3953 5.94344 20.8708 3.88965 20.6827V3.26859C4.45096 3.31957 5.01793 3.3966 5.5883 3.49855V18.8538V18.8538ZM14.9856 24.7597V24.8181C14.4101 24.4335 13.8295 24.075 13.2444 23.743V22.6402C13.8567 23.2684 14.4429 23.9753 14.9856 24.7597V24.7597Z" stroke="#5F5555" stroke-width="1.5" stroke-miterlimit="10" stroke-linecap="round" stroke-linejoin="round"/>
<path d="M15.0539 7.44895V24.8636C15.049 24.8603 15.0449 24.857 15.04 24.8546C15.0335 24.8496 15.0278 24.8455 15.0212 24.8415C15.0163 24.8382 15.0114 24.835 15.0065 24.8325C15.0008 24.8275 14.9943 24.8235 14.9886 24.8202C14.9878 24.8194 14.9861 24.8186 14.9853 24.8178V7.53069C14.9861 7.52904 14.9877 7.5274 14.9886 7.52576V7.43179C14.9779 7.41542 14.9673 7.39911 14.9551 7.38359C14.9665 7.3901 14.9771 7.39747 14.9886 7.40562C14.9991 7.41214 15.0106 7.4195 15.0212 7.42686C15.0277 7.43094 15.0335 7.43502 15.04 7.43995C15.0417 7.44074 15.0441 7.44238 15.0458 7.44323C15.0482 7.44573 15.0515 7.44737 15.0539 7.44895V7.44895Z" stroke="#5F5555" stroke-width="1.5" stroke-miterlimit="10" stroke-linecap="round" stroke-linejoin="round"/>
<path d="M14.9885 7.43168V7.52571C14.9874 7.5274 14.9863 7.5291 14.9851 7.5308V24.7598C14.4425 23.9753 13.8563 23.2684 13.244 22.6403C12.2681 21.6389 11.2253 20.8357 10.1854 20.2319C8.55586 19.2843 6.93367 18.8249 5.58789 18.8538V1.52066C8.20639 1.46572 11.8722 3.25783 14.6039 6.89643C14.7229 7.05502 14.8407 7.21758 14.9551 7.38354C14.967 7.3994 14.9778 7.41526 14.9885 7.43168V7.43168Z" stroke="#5F5555" stroke-width="1.5" stroke-miterlimit="10" stroke-linecap="round" stroke-linejoin="round"/>
<path d="M15.0573 7.53069V24.8636C15.0565 24.8619 15.0548 24.8603 15.054 24.8586C15.0524 24.857 15.0516 24.8545 15.0499 24.8529C15.045 24.8464 15.0409 24.839 15.036 24.8325C15.0311 24.8251 15.0262 24.8186 15.0213 24.812C15.0107 24.7957 15.0001 24.7802 14.9886 24.7646C14.9886 24.763 14.987 24.7613 14.9854 24.7597V7.53069C14.9861 7.52904 14.9878 7.5274 14.9886 7.52576V7.43179C14.9911 7.43423 14.9927 7.43587 14.9936 7.43831C14.9952 7.43995 14.996 7.44159 14.9968 7.44323C14.9985 7.44488 14.9993 7.44567 14.9993 7.44731C15.0074 7.45796 15.0148 7.46855 15.0213 7.4792C15.0328 7.49472 15.0434 7.51024 15.054 7.52576C15.0548 7.5274 15.0564 7.52904 15.0573 7.53069V7.53069Z" stroke="#5F5555" stroke-width="1.5" stroke-miterlimit="10" stroke-linecap="round" stroke-linejoin="round"/>
<path d="M28.5368 4.56657V22.9265L15.0537 25.3244V24.8587C15.0545 24.8603 15.0561 24.862 15.057 24.8636V24.8179C18.6829 22.3938 22.5302 21.0147 26.1528 20.683V4.99058L28.5368 4.56657Z" stroke="#5F5555" stroke-width="1.5" stroke-miterlimit="10" stroke-linecap="round" stroke-linejoin="round"/>
<path d="M15.0569 7.53069V24.8513L15.0536 24.8521L15.0496 24.8529L15.0398 24.8546L15.021 24.8578L14.9883 24.8636V7.44895L14.9989 7.44731L15.0209 7.44323L15.0397 7.43995L15.0487 7.43831L15.0536 7.43751V7.52576C15.0544 7.5274 15.0561 7.52904 15.0569 7.53069ZM26.1535 3.26831V20.6829C22.5308 21.0146 18.6835 22.3938 15.0576 24.8178V24.7598C17.8208 20.7638 21.7122 18.7956 24.4549 18.8536V3.49872C25.0252 3.3966 25.5922 3.3198 26.1535 3.26831V3.26831Z" stroke="#5F5555" stroke-width="1.5" stroke-miterlimit="10" stroke-linecap="round" stroke-linejoin="round"/>
<path d="M15.0536 7.52576C15.0544 7.5274 15.0561 7.52904 15.0569 7.53069V24.8178C15.0561 24.8186 15.0545 24.8194 15.0536 24.8202C15.0479 24.8235 15.0414 24.8276 15.0357 24.8325C15.0308 24.8349 15.0259 24.8382 15.021 24.8415C15.0144 24.8455 15.0087 24.8496 15.0022 24.8546C14.9972 24.857 14.9932 24.8603 14.9883 24.8636V7.44895C14.9907 7.44731 14.994 7.44567 14.9964 7.44323C14.9981 7.44244 15.0005 7.4408 15.0022 7.43995C15.0087 7.43502 15.0144 7.43094 15.021 7.42686C15.0316 7.4195 15.043 7.41214 15.0536 7.40562C15.0651 7.39747 15.0757 7.3901 15.0871 7.38359C15.0749 7.39911 15.0642 7.41542 15.0536 7.43179V7.52576V7.52576Z" stroke="#5F5555" stroke-width="1.5" stroke-miterlimit="10" stroke-linecap="round" stroke-linejoin="round"/>
<path d="M24.4545 1.52072V18.8536C21.7118 18.7956 17.8204 20.7637 15.0573 24.7598V7.53069C15.0565 7.52904 15.0548 7.5274 15.054 7.52576V7.43179C15.0646 7.41542 15.0752 7.39911 15.0875 7.38359C15.2027 7.21775 15.3195 7.05513 15.4396 6.89665C18.1709 3.25772 21.836 1.466 24.4545 1.52072V1.52072ZM13.2441 22.6402V28.5371L11.7148 27.0078L10.1855 28.5371V20.2319C11.2255 20.8357 12.2682 21.6388 13.2441 22.6402V22.6402Z" stroke="#5F5555" stroke-width="1.5" stroke-miterlimit="10" stroke-linecap="round" stroke-linejoin="round"/>
</g>
<defs>
<clipPath id="clip0_106_3874">
<rect width="29" height="29" fill="white" transform="translate(0.5 0.5)"/>
</clipPath>
</defs>
</svg>
